<svg width="90" height="90" viewBox="0 0 90 90" fill="none" xmlns="http://www.w3.org/2000/svg">
<path d="M45 0.61142C20.4564 0.61142 0.489136 20.5787 0.489136 45.1223C0.489136 69.6659 20.4564 89.6332 45 89.6332C69.5436 89.6332 89.5109 69.6659 89.5109 45.1223C89.5109 20.5787 69.5436 0.61142 45 0.61142ZM82.9154 23.7708L82.216 24.6835C82.0575 24.8889 81.9949 25.1423 82.0389 25.3957C82.619 28.7531 82.7139 29.3938 82.7198 29.4701C82.7198 29.6501 83.5963 33.4438 84.15 35.8229L83.8565 35.9824L80.8024 30.7546L77.31 24.481C77.2083 24.2971 77.0449 24.1533 76.8492 24.075L74.3605 23.0791C74.3214 23.0625 74.2823 23.0498 74.2461 23.041L69.8967 21.9238C69.842 21.9101 69.7901 21.8837 69.7461 21.8504L66.1246 19.0604C66.0424 18.9969 65.9289 18.992 65.8409 19.0458L65.0455 19.5349C64.982 19.574 64.9399 19.6396 64.9291 19.7139C64.9194 19.7883 64.9428 19.8626 64.9937 19.9174L68.5966 23.807C68.807 24.0329 69.1239 24.1415 69.433 24.0858L70.8026 23.8373C70.9171 23.8158 71.0374 23.8451 71.1284 23.9156L73.3373 25.5835C73.4566 25.6745 73.5192 25.8222 73.5007 25.9709L73.2717 27.7591C73.261 27.8452 73.2228 27.9254 73.1641 27.99L70.4622 30.917C70.426 30.9571 70.382 30.9884 70.333 31.0119L65.6971 33.1992C65.473 33.3069 65.1952 33.1816 65.1209 32.9498L64.2923 30.374C64.2561 30.2606 64.1984 30.1569 64.123 30.0669L56.1365 20.5073C55.889 20.2109 55.4615 20.1003 55.1025 20.2402L54.7092 20.3919L53.5089 18.8619L55.5368 17.2741C55.7609 17.099 55.888 16.8359 55.888 16.5522V14.5673C55.888 14.0273 55.4302 13.5929 54.8687 13.6556L51.3734 14.0469C51.3274 14.0469 51.2814 14.039 51.2374 14.0244L49.4345 13.4081C49.2887 13.3582 49.1821 13.232 49.1576 13.0794L48.9307 11.6785C48.869 11.296 48.5707 10.9917 48.1891 10.9233L47.3087 10.7628C47.2363 10.7472 47.161 10.7687 47.1042 10.8166C47.0475 10.8636 47.0152 10.934 47.0152 11.0084V12.6382L46.259 12.7898C46.1504 12.8113 46.0399 12.7898 45.9499 12.7301L45.3434 12.3378C45.2602 12.284 45.1986 12.2019 45.1702 12.1079L44.8826 11.162C44.821 10.9604 44.6909 10.7863 44.5167 10.6689L41.7189 8.78577C41.5673 8.68305 41.3941 8.60772 41.1613 8.63022L40.1576 8.67718C40.0569 8.68207 39.9688 8.74762 39.9346 8.84251C39.9003 8.9374 39.9267 9.04403 40.0021 9.11153L42.0525 10.9761C42.1494 11.0632 42.1983 11.1884 42.1885 11.3185C42.1777 11.4486 42.1092 11.564 42.0007 11.6354L41.4352 12.0033C41.1114 11.8438 40.7602 11.6423 40.6585 11.5454C40.6399 11.429 40.5685 11.1326 40.277 10.2356C40.1801 9.9362 39.9395 9.7112 39.6333 9.63294L37.9712 9.20544C37.8597 9.17707 37.7433 9.16827 37.6269 9.18392L35.0638 9.51066C34.8995 9.5312 34.7429 9.59675 34.6128 9.69946L31.8776 11.8507L29.162 13.6419C29.1072 13.6781 29.0436 13.7015 28.9771 13.7084L26.909 13.9236C26.7603 13.9236 26.6253 13.8444 26.55 13.7133C26.4737 13.5812 26.4737 13.4286 26.55 13.2965L27.8452 11.0495C27.8971 10.9585 27.9822 10.891 28.082 10.8587L31.4491 9.79827C31.727 9.7112 31.9422 9.50283 32.039 9.22794C32.1359 8.95305 32.0987 8.65664 31.9373 8.41403C31.8639 8.30446 31.8473 8.17044 31.8894 8.04718C31.9324 7.92294 32.0283 7.82707 32.1525 7.78599L34.739 6.92414C34.8036 6.90262 34.8652 6.87327 34.9229 6.83903L36.7924 5.7062C36.8266 5.68566 36.8648 5.66903 36.9049 5.65925L39.016 5.11729C39.1754 5.0762 39.3212 4.99403 39.4376 4.87664L40.1087 4.20457L40.6487 4.74457C40.8189 4.91479 41.0557 5.01262 41.3139 5.01262L44.01 4.96175C44.2399 4.95783 44.459 4.86783 44.6253 4.70935L45.721 3.66555C45.7738 3.61566 45.8022 3.54522 45.7983 3.47381C45.7953 3.40142 45.7601 3.33392 45.7034 3.2899L44.9618 2.7049C44.6361 2.44762 44.1362 2.45055 43.8143 2.7137L42.8292 3.51588C42.7304 3.59609 42.5984 3.62838 42.4741 3.60001L41.6817 3.42392C41.537 3.39164 41.4225 3.28794 41.3755 3.14707C41.3315 3.00522 41.3609 2.85359 41.4587 2.74109L42.3822 1.67577C43.2489 1.62392 44.1205 1.58968 45 1.58968C61.2489 1.58968 75.4366 10.5437 82.9154 23.7708ZM88.5326 45.1223C88.5326 69.1269 69.0046 88.6549 45 88.6549C20.9954 88.6549 1.4674 69.1269 1.4674 45.1223C1.4674 22.2378 19.2199 3.43566 41.6749 1.72957L41.0811 2.41435C40.8678 2.66088 40.8013 2.99348 40.903 3.30359C41.0058 3.61272 41.2572 3.83968 41.5751 3.91109L42.3675 4.08718C42.6404 4.14783 42.932 4.0774 43.1462 3.90327L44.1313 3.10109C44.28 2.97979 44.505 2.97881 44.6547 3.09718L45.1702 3.50414L44.2829 4.34935C44.2066 4.42175 44.1069 4.46283 44.0022 4.46479L41.2973 4.51566C41.1877 4.51566 41.0791 4.47066 41.0018 4.39338L40.2848 3.67533C40.1909 3.58142 40.0255 3.58142 39.9326 3.67533L39.0835 4.52446C39.0297 4.57729 38.9632 4.61544 38.8908 4.63403L36.7787 5.17599C36.6907 5.19849 36.6075 5.2337 36.5312 5.27968L34.6617 6.41251C34.6353 6.42914 34.606 6.44186 34.5776 6.45164L31.9921 7.31251C31.7191 7.40446 31.5088 7.61283 31.4149 7.88577C31.321 8.15772 31.3591 8.45218 31.5186 8.69186C31.5929 8.8024 31.6096 8.9374 31.5655 9.06262C31.5215 9.18783 31.4227 9.28272 31.2965 9.32283L27.9294 10.3833C27.7092 10.4527 27.5253 10.6014 27.4109 10.8L26.1157 13.0471C25.9503 13.3337 25.9503 13.6771 26.1157 13.9637C26.2986 14.2797 26.6302 14.4528 27.0069 14.4176L29.0279 14.2044C29.1747 14.1887 29.3155 14.1378 29.4359 14.0576L32.1466 12.2694C32.1535 12.2645 32.2063 12.2273 32.2122 12.2224L34.918 10.0917C34.9787 10.0448 35.0491 10.0145 35.1245 10.0057L37.7403 9.67501C37.7765 9.67501 37.8117 9.6799 37.845 9.6887L39.5061 10.1162C39.646 10.1524 39.7546 10.2541 39.7986 10.3891C40.0559 11.1825 40.1557 11.5503 40.1625 11.6159C40.1625 11.7352 40.1625 11.9583 41.3452 12.5139C41.4235 12.5501 41.5145 12.5442 41.5878 12.4973L42.2707 12.0522C42.5103 11.8957 42.661 11.6423 42.6835 11.3566C42.706 11.071 42.5984 10.7971 42.3861 10.6044L40.7798 9.14479L41.2014 9.12425C41.2846 9.12425 41.3658 9.1487 41.4352 9.19566L44.233 11.0788C44.3133 11.1326 44.372 11.2128 44.3994 11.3038L44.687 12.2498C44.7496 12.4562 44.8846 12.6352 45.0665 12.7536L45.674 13.1459C45.8736 13.274 46.1142 13.322 46.352 13.275L47.3087 13.0833C47.4251 13.0598 47.5092 12.9581 47.5092 12.8387V11.3038L48.0962 11.4104C48.2694 11.4417 48.4053 11.5807 48.4337 11.7558L48.6607 13.1566C48.7145 13.4912 48.9473 13.7681 49.2691 13.8776L51.0721 14.4939C51.2002 14.5379 51.3352 14.5526 51.4722 14.5379L54.9695 14.1466C55.1994 14.1466 55.3872 14.3335 55.3872 14.5644V16.5492C55.3872 16.6784 55.3285 16.7987 55.2267 16.8789L53.1479 18.5067C52.965 18.3678 52.7625 18.2592 52.5307 18.2279L45.5116 17.2712C45.181 17.2262 44.8454 17.3064 44.5705 17.4962L43.9239 17.9442C43.5307 18.2162 43.0239 18.2583 42.5915 18.0528C40.545 17.0824 34.6705 14.3071 34.4015 14.3071C34.1188 14.3071 28.3177 15.5328 26.7828 15.8586C26.5383 15.9104 26.3172 16.0288 26.1372 16.2029L22.1302 20.0592C22.1048 20.0837 22.0813 20.1082 22.0578 20.1346L16.4661 26.4248C16.3066 26.6038 16.199 26.8229 16.153 27.0587L14.533 35.3778C14.4665 35.7192 14.536 36.0734 14.7258 36.3649L17.9051 41.2357C18.1291 41.579 18.4989 41.8011 18.9078 41.8373L23.4362 42.2364C23.6769 42.2579 23.9185 42.2129 24.1366 42.1083L28.2033 40.1429C28.5192 39.9903 28.8822 39.9678 29.2138 40.0803L33.5729 41.5526C34.2274 41.7737 34.606 42.4575 34.4465 43.1296L33.7236 46.1769C33.6365 46.5437 33.7079 46.9291 33.9202 47.2412L37.9428 53.1323C38.0798 53.3319 38.159 53.5657 38.1737 53.8073L38.383 57.2958C38.3919 57.4406 38.3772 57.5853 38.339 57.7242L37.125 62.2213C37.0497 62.4991 37.0663 62.7936 37.172 63.0607L40.3112 71.0227C40.3386 71.0922 40.3718 71.1587 40.41 71.2233L43.2127 75.872C43.5023 76.3523 44.0599 76.6008 44.6107 76.4951L50.8422 75.3016C51.1728 75.2381 51.4683 75.0522 51.6678 74.7812L54.628 70.7635C54.7288 70.6265 54.855 70.5101 54.9998 70.4201L56.5298 69.4702C56.9142 69.2315 57.152 68.8158 57.1617 68.3638L57.2126 66.1627C57.2214 65.792 57.3828 65.4417 57.6597 65.1952L61.3761 61.877C61.6422 61.6392 61.8026 61.3047 61.8212 60.9486L62.3407 51.0007C62.3553 50.7277 62.4522 50.4656 62.6195 50.2503L68.9429 42.0985C69.0652 41.941 69.1513 41.7571 69.1934 41.5614L70.1266 37.2571C70.3399 36.2729 69.4321 35.415 68.4616 35.6831L66.3496 36.2681C65.7372 36.4373 65.0896 36.1526 64.8 35.5872L61.4446 29.0152C61.4054 28.9379 61.3585 28.8656 61.3057 28.7981L55.0311 20.8017L55.2825 20.7049C55.4459 20.6403 55.6396 20.6912 55.753 20.8272L63.7396 30.3877C63.7738 30.4288 63.8002 30.4758 63.8169 30.5276L64.6454 33.1034C64.8088 33.6131 65.4212 33.8821 65.9094 33.6522L70.5463 31.4638C70.6539 31.4129 70.7488 31.3425 70.829 31.2564L73.531 28.3295C73.6611 28.1876 73.7423 28.0135 73.7667 27.8237L73.9957 26.0354C74.0377 25.7097 73.9008 25.3849 73.6386 25.1863L71.4307 23.5184C71.2291 23.3648 70.967 23.2992 70.7136 23.3472L69.344 23.5957C69.2022 23.6191 69.0584 23.5722 68.9625 23.4685L65.566 19.802L65.9553 19.5623L69.4409 22.2476C69.5407 22.3239 69.6512 22.3777 69.7715 22.409L74.1727 23.5428L76.6634 24.5397C76.7524 24.5749 76.8267 24.6414 76.8727 24.7246L80.368 31.0031L83.5474 36.4451C83.6159 36.5615 83.7655 36.6016 83.882 36.5381L84.555 36.1712C84.6538 36.1174 84.7037 36.0049 84.6783 35.8953C84.106 33.4389 83.2441 29.6961 83.2167 29.4711C83.2167 29.4173 83.2167 29.2921 82.529 25.3115C82.5085 25.1971 82.5378 25.0826 82.6102 24.9887L83.1835 24.2413C86.5908 30.4435 88.5326 37.5594 88.5326 45.1223Z" fill="black"/>
<path d="M61.8056 11.7655C61.831 11.7959 61.8525 11.8301 61.8682 11.8663L62.8817 14.1584C62.9785 14.3795 63.1556 14.5497 63.3796 14.6397L65.8781 15.6385C65.9084 15.6502 65.9397 15.6571 65.971 15.6571C66.0316 15.6571 66.0913 15.6346 66.1383 15.5925L66.7497 15.0417C66.8485 14.9527 66.8602 14.8021 66.7761 14.6984L63.7269 10.9546C63.6916 10.9115 63.6535 10.8724 63.6105 10.8352L62.4551 9.85207C62.3612 9.77185 62.3074 9.65641 62.3074 9.53315V8.74076C62.3074 8.62631 62.2292 8.52652 62.1186 8.49815C61.9611 8.45804 61.7625 8.48544 60.8752 9.08413C60.659 9.22989 60.5152 9.46174 60.479 9.71902C60.4428 9.97631 60.5192 10.2375 60.6864 10.4361L61.8056 11.7655ZM61.154 9.50087C61.469 9.28859 61.6774 9.16435 61.8085 9.09098V9.53511C61.8085 9.80413 61.9259 10.0595 62.1313 10.2336L63.2857 11.2158C63.3052 11.2324 63.3238 11.252 63.3405 11.2715L66.239 14.8304L65.9192 15.118L63.5655 14.177C63.4627 14.1359 63.3825 14.0576 63.3385 13.9578L62.325 11.6638C62.2898 11.5836 62.2438 11.5102 62.1871 11.4437L61.068 10.1172C60.9907 10.0252 60.9564 9.90881 60.9731 9.79044C60.9897 9.67109 61.0543 9.56837 61.154 9.50087Z" fill="black"/>
<path d="M49.8238 10.7795C50.1545 10.937 50.5096 11.1326 50.7982 11.2921C51.2883 11.5631 51.3929 11.6169 51.4996 11.6218C51.5035 11.6218 51.5103 11.6218 51.5142 11.6218C51.7481 11.6218 53.0354 11.0583 53.3906 10.8763C53.4757 10.8333 53.5715 10.8196 53.6654 10.8391L57.4533 11.6169C57.555 11.6364 57.6626 11.5914 57.7174 11.5004L58.1762 10.7364C58.2457 10.62 58.2104 10.4684 58.095 10.396L56.1541 9.17903C56.0553 9.1174 55.9477 9.07534 55.8352 9.05479L52.8995 8.50501C52.875 8.5011 52.8515 8.49425 52.829 8.48545L51.7285 8.06871C51.4194 7.95327 51.0554 8.01588 50.804 8.23306L49.6203 9.25632C49.3856 9.45979 49.2691 9.76501 49.3112 10.0732C49.3513 10.3823 49.544 10.6454 49.8238 10.7795ZM49.9461 9.6349L51.1298 8.61164C51.2061 8.5461 51.3029 8.5099 51.4027 8.5099C51.4536 8.5099 51.5035 8.51871 51.5504 8.53729L52.652 8.95403C52.7028 8.9736 52.7547 8.98729 52.8075 8.99708L55.7433 9.54686C55.7941 9.55566 55.8431 9.57523 55.8881 9.6036L57.6215 10.6904L57.3799 11.0935L53.7662 10.351C53.5647 10.3099 53.3475 10.3393 53.1626 10.4332C52.694 10.6738 51.7598 11.0524 51.5289 11.117C51.4379 11.0759 51.2276 10.9604 51.0398 10.8558C50.7434 10.6924 50.3795 10.4909 50.04 10.3295C49.9099 10.2678 49.8248 10.1504 49.8052 10.0086C49.7857 9.86675 49.8365 9.72979 49.9461 9.6349Z" fill="black"/>
<path d="M69.4066 59.1016C69.2511 58.5519 68.5145 58.4511 68.2171 58.9392L67.3777 60.3176C67.3171 60.4164 67.232 60.4976 67.1302 60.5534L65.3332 61.5248C65.1404 61.6295 65.0123 61.8232 64.9927 62.0413L64.6719 65.5748C64.6631 65.6746 64.6308 65.7714 64.5789 65.8565L63.6535 67.3728C63.5909 67.4756 63.5576 67.5939 63.5576 67.7143V68.4049C63.5576 68.8001 63.9049 69.1053 64.2972 69.0545L65.3185 68.9214C65.5357 68.8931 65.7245 68.7581 65.8213 68.5604L69.6835 60.6942C69.7549 60.5495 69.7696 60.3832 69.7256 60.2276L69.4066 59.1016Z" fill="black"/>
</svg>
