<svg width="90" height="90" viewBox="0 0 90 90" fill="none" xmlns="http://www.w3.org/2000/svg">
<circle cx="45" cy="45" r="44.5" stroke="black"/>
<path d="M44.6241 25.4854C44.6243 25.4731 44.6248 25.4608 44.6259 25.4484C44.6483 25.1788 44.8803 24.9789 45.1439 25.0018L49.9993 25.4242C50.064 25.4299 50.1269 25.4489 50.1842 25.4801L53.1777 27.1123H56.3637C56.5531 27.1123 56.7247 27.2263 56.8016 27.4032L57.5248 29.0666L63.0596 30.077C63.2261 30.1074 63.3646 30.2253 63.424 30.3873L64.0438 32.077C64.064 32.132 64.0744 32.1903 64.0744 32.249V34.4745L65.0706 36.9188C65.1179 37.035 65.1197 37.1655 65.0755 37.283L64.1911 39.6337L67.1359 41.3272C67.2396 41.3868 67.3179 41.4838 67.3556 41.5992L67.9754 43.5002C67.9917 43.5502 68 43.6025 68 43.6551V49.9918C68 50.0786 67.9775 50.1637 67.9347 50.2386L66.5537 52.6589V54.2163C66.5537 54.3942 66.4594 54.5581 66.3072 54.6445L64.5773 55.627L62.9907 58.8711C62.9583 58.9373 62.9117 58.9951 62.8543 59.0403L57.4823 63.2647C57.3986 63.3306 57.2959 63.3663 57.1902 63.3663H54.4107L53.2722 63.9483C53.1757 63.9976 53.0658 64.0122 52.9602 63.9897L48.0015 62.9336C47.7793 62.8863 47.62 62.6861 47.62 62.454V60.3418C47.62 60.2657 47.6373 60.1907 47.6706 60.1227L48.5965 58.2295L47.9134 56.8327L47.1253 57.3698C47.0084 57.4495 46.863 57.4727 46.7279 57.4332L41.2598 55.8361L40.8378 56.4112C40.7474 56.5346 40.6053 56.6072 40.4545 56.6072H38.8491L36.8294 57.0201C36.7103 57.0445 36.5866 57.0216 36.4833 56.9563L32.1444 54.2104C32.0543 54.1533 31.9852 54.0673 31.9479 53.9658L30.7083 50.5863C30.6806 50.5108 30.6715 50.4295 30.682 50.3495L30.9474 48.3147L29.5792 49.3319C29.3339 49.5143 28.9867 49.4207 28.8612 49.1384L27.8281 46.815C27.7856 46.7193 27.7743 46.6123 27.7958 46.5096L28.4156 43.5525C28.4418 43.4277 28.5145 43.3183 28.6184 43.2475L29.4232 42.699L28.9232 42.0601C28.8553 41.9733 28.8182 41.8653 28.8182 41.7541V40.9766H26.818C26.6246 40.9766 26.4501 40.8577 26.3757 40.6752L25.3556 38.1722L22.0669 32.4988C22.0148 32.4089 21.9922 32.3043 22.0024 32.2003L22.4156 27.9758C22.4591 27.5316 23.0137 27.3735 23.2757 27.7307L25.1352 30.2653C25.1591 30.2979 25.1789 30.3333 25.1942 30.3708L26.176 32.7796L29.1123 34.981L31.3207 35.8019C31.3865 35.8264 31.4462 35.8653 31.4957 35.9159L32.5579 37.0018L34.5906 36.624L36.8945 36.2314L37.7723 35.1546L38.7182 33.0272L38.329 30.6398C38.2803 30.3412 38.5055 30.0694 38.8016 30.0694H39.1489V28.6582C39.1489 28.5209 39.2053 28.3899 39.3043 28.2971L41.7836 25.9737C41.8554 25.9064 41.9455 25.8631 42.0419 25.8495L44.6241 25.4854Z" fill="black"/>
</svg>
