<svg width="90" height="90" viewBox="0 0 90 90" fill="none" xmlns="http://www.w3.org/2000/svg">
<path d="M45 0.61142C20.4564 0.61142 0.489136 20.5787 0.489136 45.1223C0.489136 69.6659 20.4564 89.6332 45 89.6332C69.5436 89.6332 89.5109 69.6659 89.5109 45.1223C89.5109 20.5787 69.5436 0.61142 45 0.61142ZM11.9446 60.9535C11.8203 60.5896 11.5582 60.301 11.2089 60.1415L8.5412 58.9265C8.27903 58.8062 8.0912 58.5665 8.0374 58.2848L7.10707 53.3739C7.10022 53.3358 7.09533 53.2966 7.09337 53.2556L6.76664 47.1121C6.7637 47.0563 6.76566 46.9996 6.77348 46.9438L7.46022 41.9674C7.49348 41.7267 7.63827 41.5331 7.83 41.3932L7.29881 49.0031C7.29392 49.0784 7.29587 49.1547 7.30761 49.23L8.38174 56.6804C8.45707 57.2058 8.90707 57.5951 9.43827 57.5951H15.5504C15.8459 57.5951 16.1276 57.4728 16.3301 57.2566L17.7907 55.6953C18.134 55.3285 18.1751 54.7728 17.8895 54.36L16.3017 52.0611C16.1198 51.797 15.8283 51.6297 15.5084 51.6033L14.7952 51.5465C14.312 51.5074 13.9158 51.1484 13.8297 50.671L12.96 45.8276C12.8876 45.4256 13.1283 45.0333 13.5196 44.9159L13.6986 44.8621C14.1212 44.7349 14.5683 44.9736 14.6974 45.3962L15.8478 49.1508C15.9505 49.4863 16.2117 49.7504 16.5473 49.8561L17.2027 50.0635C17.4346 50.1369 17.6341 50.2865 17.7691 50.489L18.2211 51.167C18.3228 51.3196 18.4617 51.4438 18.6261 51.526L23.1232 53.8112C23.2719 53.8865 23.401 53.9961 23.4998 54.1311L27.181 59.1437L27.3913 59.4597L28.6308 65.0778C28.6435 65.1972 28.6758 65.3136 28.7276 65.4212L31.455 71.1802C31.5391 71.3593 31.6722 71.5109 31.8375 71.6185L34.0454 73.0536C34.5003 73.349 35.1059 73.2561 35.4512 72.8374L35.7427 72.4833C35.8963 72.2964 35.9579 72.0499 35.91 71.8132L34.9973 67.319C34.9513 67.0931 34.9797 66.8583 35.0785 66.6499L36.2583 64.1592C36.3463 63.9724 36.4872 63.8159 36.6633 63.7073L41.3413 60.8283C41.5673 60.6894 41.8363 60.6395 42.0975 60.6884L45.0411 61.2401C45.3933 61.3066 45.6897 61.5453 45.8286 61.876L47.0866 64.8714C47.2304 65.2138 47.5415 65.4564 47.9084 65.5132L49.9715 65.8311C50.3022 65.882 50.5898 66.0854 50.7492 66.3799L51.4653 67.7103C51.5778 67.9187 51.617 68.1584 51.5788 68.3922L51.3489 69.7735C51.3254 69.9153 51.3303 70.0601 51.3646 70.2L51.9241 72.5087C51.9515 72.6212 51.9965 72.7278 52.0582 72.8257L52.5952 73.6797C53.057 74.4144 52.4514 75.3535 51.5915 75.2361C50.6015 75.1011 50.0263 76.321 50.76 76.9989L53.6948 79.7116C53.7378 79.7508 53.7838 79.787 53.8317 79.8193L56.9397 81.8677C57.1891 82.0321 57.51 82.0448 57.7722 81.899L58.2173 81.6515C58.5616 81.4608 58.7162 81.0479 58.5832 80.6772L58.1508 79.4769C58.1048 79.3477 58.0334 79.2294 57.9424 79.1266L57.062 77.6514L56.9397 77.1466C57.0444 76.8952 57.0492 76.6125 56.9524 76.3572L56.3087 74.6609C56.2412 74.4838 56.1277 74.3273 55.98 74.2079L53.7711 72.4304C53.2829 72.0372 53.237 71.3113 53.6713 70.8594L54.3962 70.1051C54.7004 69.7882 55.168 69.6903 55.574 69.8586L57.7379 70.7557C58.0549 70.8868 58.4169 70.8584 58.7084 70.6774L61.2802 69.0848C61.5267 68.9322 61.7009 68.6847 61.7615 68.401L62.0433 67.0842C62.1137 66.7556 62.0257 66.4141 61.8055 66.1608L60.0946 64.1935C59.5585 63.5772 59.8862 62.6107 60.6864 62.4473L62.5207 62.0726C62.7594 62.0237 62.9736 61.8956 63.1291 61.7077L65.1033 59.3257C65.2021 59.2063 65.2745 59.0664 65.3136 58.9168L65.5503 58.0158C65.6217 57.7467 65.7949 57.5159 66.0336 57.3721L67.815 56.3038C68.0048 56.1894 68.1545 56.0191 68.2435 55.8166L70.7762 50.0283C70.8936 49.7592 70.8955 49.454 70.7811 49.184L70.0474 47.4535C70.0043 47.3517 69.9457 47.2569 69.8733 47.1737L68.2689 45.3121C68.1633 45.1898 68.0048 45.1399 67.9285 44.9716L67.7299 44.2379L68.2523 42.9036C68.5996 42.4223 68.3237 41.7444 67.7397 41.6426L67.2251 41.5526C66.5002 41.4254 66.1187 40.6213 66.4777 39.9796L66.5707 39.8142C66.7624 39.4719 67.1332 39.2694 67.5245 39.2938L69.0388 39.3858C69.3753 39.4063 69.6835 39.5844 69.8674 39.8671L71.4453 42.2844C71.822 42.8606 72.6368 42.9349 73.1113 42.437L73.3236 42.2139C73.6171 41.9058 73.6895 41.447 73.5026 41.0635L71.4874 36.9059C71.3133 36.5469 71.3543 36.1194 71.594 35.7995L72.1203 35.0981C72.313 34.8408 72.313 34.8408 72.7885 34.4553L72.8804 33.9506L72.2289 26.1372C72.1986 25.9719 72.1272 25.8163 72.0225 25.6852L70.6167 23.9283C70.3868 23.6416 69.9916 23.5467 69.6571 23.6994L69.3313 23.8471C68.8676 24.0574 68.3276 23.7894 68.2151 23.2924L67.4501 19.9027C67.3542 19.4782 67.5254 19.0379 67.8835 18.7904L70.0435 17.2927C70.4768 16.9924 71.0648 17.0531 71.4267 17.4365L74.3517 20.5288C74.609 20.8008 75.0199 20.8595 75.3427 20.6687C75.7761 20.4134 75.871 19.8274 75.5403 19.4478L68.67 11.5758C68.4675 11.3439 68.174 11.2099 67.8659 11.2099H63.0763C63.0059 11.2099 62.9364 11.2167 62.867 11.2304L59.4861 11.9064C59.3648 11.9309 59.2484 11.9759 59.1417 12.0404L56.9103 13.3924C56.7166 13.5098 56.4897 13.5626 56.2637 13.5431L52.2225 13.1889C52.0533 13.1742 51.8899 13.1185 51.7461 13.0285L49.3004 11.4838C49.0265 11.3107 48.689 11.2715 48.3828 11.3772L43.966 12.8974C43.918 12.914 43.8721 12.9336 43.8271 12.9561L40.5117 14.6524C40.4305 14.6945 40.3435 14.7258 40.2535 14.7453L38.2099 15.1924C37.935 15.2531 37.6464 15.2012 37.4087 15.0506L36.3913 14.4029C36.134 14.2396 35.819 14.1936 35.5255 14.2767L34.3458 14.6133C34.2988 14.627 34.2499 14.6367 34.202 14.6436L31.2437 15.0603C30.2126 15.2061 29.6051 13.9402 30.3633 13.2261C30.5648 13.0363 30.6548 12.7556 30.6 12.4836L30.5217 12.0894C30.4474 11.7206 30.152 11.4965 29.8301 11.4564C29.7646 11.2666 29.6589 11.0896 29.4858 10.9585L29.1238 10.6856C28.8783 10.5007 28.5496 10.4312 28.2522 10.5036L24.7128 11.3547L22.5245 11.7196C22.3269 11.7528 22.1439 11.8419 21.9952 11.9759L20.6716 13.1772C20.6257 13.2183 20.5836 13.2652 20.5454 13.3141L19.3451 14.8764L18.4197 16.2235C18.358 16.3135 18.362 16.4319 18.4285 16.5179C18.494 16.6031 18.6095 16.6353 18.7122 16.5991L20.4447 15.9623C20.4799 15.9496 20.5151 15.9339 20.5503 15.9163L21.872 15.256C22.0334 15.1758 22.1713 15.0535 22.273 14.9019L22.7211 14.2298C22.7954 14.1173 22.9089 14.0371 23.039 14.0038L25.4837 13.3816L25.0494 14.0429C24.9838 14.1437 24.884 14.221 24.7696 14.2591L22.6223 14.986C22.4129 15.0564 22.2349 15.1895 22.1067 15.3695L21.6372 16.0298C21.5765 16.1149 21.4934 16.1804 21.3946 16.2196L19.9565 16.7909C19.9242 16.8036 19.8929 16.8183 19.8616 16.8339L18.0812 17.7603L17.5598 17.1157L18.946 15.3362C19.0008 15.2658 19.0135 15.1719 18.9812 15.0897C18.9479 15.0075 18.8736 14.9478 18.7846 14.9361L18.0714 14.8344C17.9951 14.8226 17.9208 14.8471 17.866 14.8989L16.785 15.9075C16.7224 15.9672 16.6432 16.0102 16.559 16.0337L15.5407 16.3125C15.5142 16.3194 15.4869 16.3252 15.4614 16.3282L12.0375 16.7341C20.0279 7.47099 31.8365 1.58968 45 1.58968C69.0046 1.58968 88.5326 21.1177 88.5326 45.1223C88.5326 69.1269 69.0046 88.6549 45 88.6549C29.0191 88.6549 15.032 79.9944 7.46022 67.1253L7.64511 66.7223C7.70479 66.5932 7.74196 66.4591 7.75957 66.3144L7.96892 64.5613L7.9924 64.6141C8.18218 65.0299 8.56468 65.3253 9.01566 65.4046C9.61435 65.5093 10.2033 65.2099 10.4801 64.6826L11.8614 62.0472C12.0404 61.7048 12.0698 61.3164 11.9446 60.9535ZM8.20272 25.5757L6.94859 24.0095C7.26653 23.4391 7.59424 22.8757 7.93664 22.321C8.06968 22.3826 8.21055 22.4266 8.36022 22.4266C8.36609 22.4266 8.43164 22.4247 8.4375 22.4237L9.50185 22.3445C9.69164 22.3445 9.86479 22.4423 9.96457 22.6076C10.0653 22.7739 10.0712 22.9686 9.9812 23.1408L9.51261 24.0388L8.92566 24.1944C8.85913 24.212 8.8024 24.256 8.77011 24.3176C8.73685 24.3783 8.73098 24.4497 8.75348 24.5152L9.2837 26.0844C9.31598 26.1792 9.40207 26.2467 9.50185 26.2536C9.60164 26.2595 9.69653 26.2076 9.7425 26.1176L11.3645 22.9314H11.4153C10.9869 24.0995 10.4312 25.606 10.3901 25.7028C10.3715 25.7449 10.3295 25.8457 10.1299 27.0372C10.0771 27.3492 10.169 27.6642 10.3784 27.9L11.431 29.0847C11.4828 29.1424 11.5572 29.1747 11.6354 29.1678C11.7127 29.1629 11.7832 29.1219 11.8262 29.0563L12.6254 27.8472C12.6607 27.7953 12.7037 27.7494 12.7546 27.7112L14.1104 26.7046L13.997 27.3209C13.9187 27.7474 14.1055 28.169 14.4734 28.397L15.7705 29.2001L15.706 30.4904C15.6942 30.7262 15.6013 30.9502 15.4428 31.1253L15.0584 31.5509C14.5917 32.0664 13.7651 32.0058 13.3787 31.4266L12.4445 30.0248C12.1901 29.6433 11.7215 29.4672 11.2794 29.5865L10.5594 29.7802C10.1573 29.8888 9.855 30.2204 9.78457 30.6313L9.42946 32.7131C9.36685 33.0779 9.49794 33.4497 9.77674 33.6942L10.5339 34.3604C10.9888 34.7606 11.0191 35.459 10.6014 35.8983L8.62631 37.9702C8.34848 37.7961 8.04522 37.6044 7.6862 37.3764C7.45924 37.2326 7.31153 36.9949 7.2812 36.7259L7.0699 34.8271C7.04251 34.5796 6.94859 34.3428 6.79892 34.1442L6.41153 33.6336C6.22957 33.392 6.18261 33.0789 6.28533 32.7962L8.42381 26.9149C8.58718 26.4629 8.50305 25.9503 8.20272 25.5757ZM11.5533 17.2947L15.5221 16.8241C15.5739 16.8183 15.6248 16.8075 15.6747 16.7938L16.6921 16.515C16.8554 16.47 17.0061 16.3859 17.1274 16.2714L18.1203 15.345L18.2886 15.3685L17.0452 16.965C16.9738 17.057 16.9748 17.1851 17.0482 17.2751L17.8229 18.2328C17.8983 18.3258 18.0274 18.3522 18.1321 18.2974L20.1444 17.2536L21.5804 16.6833C21.7683 16.6089 21.9297 16.4827 22.0461 16.3184L22.5157 15.659C22.5822 15.5651 22.6761 15.4957 22.7837 15.4585L24.932 14.7316C25.1511 14.6573 25.3419 14.5096 25.469 14.3169L26.2565 13.1185C26.3133 13.0324 26.3113 12.9199 26.2507 12.8367C26.191 12.7526 26.0873 12.7145 25.9855 12.7399L22.9177 13.5206C22.6683 13.5841 22.4511 13.7387 22.3073 13.9529L21.8602 14.624C21.8074 14.7033 21.735 14.7669 21.6509 14.8089L20.2745 15.4937L19.2776 15.8596L19.7765 15.1347L20.9436 13.6184C20.9632 13.5929 20.9847 13.5695 21.0091 13.547L22.3327 12.3447C22.41 12.2742 22.5059 12.2283 22.6086 12.2107L24.7989 11.8458C24.8038 11.8448 24.8635 11.8331 24.8684 11.8321L28.3696 10.9888C28.5241 10.9507 28.6953 10.9859 28.8235 11.0837L29.1854 11.3566C29.2549 11.4095 29.3028 11.477 29.34 11.5503C29.2627 11.5944 29.1894 11.6482 29.1258 11.7225L27.7464 13.3249C27.6975 13.3816 27.6417 13.4335 27.5821 13.4795L25.2196 15.2687C25.064 15.3861 24.9457 15.5456 24.8782 15.7285L24.6688 16.2949C24.5573 16.5952 24.3176 16.83 24.0144 16.9337L20.9005 18C20.6423 18.089 20.4271 18.2729 20.3009 18.5156L18.6525 21.6753C18.5791 21.8152 18.538 21.9698 18.5322 22.1273L18.4011 25.4759C18.3874 25.832 18.1966 26.1577 17.8924 26.3436L16.3321 27.3003C16.0317 27.4842 15.841 27.8051 15.8234 28.1573L15.7999 28.6327L14.7365 27.9744C14.5448 27.855 14.447 27.6349 14.488 27.4128L14.716 26.1724C14.7346 26.0716 14.6896 25.9699 14.6025 25.9151C14.5154 25.8613 14.4039 25.8662 14.3217 25.9269L12.4572 27.3111C12.3584 27.3845 12.2752 27.4725 12.2087 27.5733L11.5885 28.5104L10.7511 27.5684C10.6415 27.4461 10.5936 27.2817 10.621 27.1194C10.756 26.3133 10.8294 25.9552 10.8479 25.8995C10.9096 25.7547 11.8937 23.0742 12.0062 22.769C12.0336 22.6927 12.0228 22.6066 11.9759 22.5401C11.9299 22.4736 11.8536 22.4335 11.7714 22.4335H11.2099C11.116 22.4335 11.0299 22.4863 10.9869 22.5695L9.56446 25.3624L9.31011 24.6082L9.74544 24.4927C9.81294 24.4751 9.86968 24.4291 9.90294 24.3675L10.4234 23.3716C10.5936 23.0459 10.5819 22.6634 10.3911 22.3484C10.2003 22.0334 9.86772 21.8456 9.50185 21.8456L8.36022 21.9267C8.30837 21.9267 8.26337 21.9013 8.21446 21.8866C9.2299 20.2842 10.3422 18.7474 11.5533 17.2947ZM6.68348 24.4781L7.8124 25.8877C8.00511 26.1274 8.05892 26.4561 7.95424 26.7437L5.81577 32.625C5.65435 33.0682 5.72772 33.5583 6.0124 33.9349L6.39979 34.4456C6.49566 34.5727 6.55631 34.7244 6.57392 34.8828L6.78522 36.7816C6.83218 37.2023 7.06305 37.5721 7.41816 37.7981C7.74001 38.0025 8.02077 38.1796 8.27805 38.342C8.11664 38.519 8.01587 38.744 7.99924 38.9847L7.87403 40.7759C7.82609 40.7984 7.78696 40.817 7.73805 40.8404C7.31837 41.042 7.02979 41.4372 6.9662 41.8999L6.27946 46.8763C6.26674 46.9634 6.26283 47.0514 6.26772 47.1404L6.59446 53.282C6.5974 53.3446 6.60522 53.4062 6.61696 53.4678L7.54729 58.3787C7.63044 58.8199 7.9249 59.1946 8.33381 59.3814L11.0015 60.5964C11.2255 60.6982 11.3928 60.8831 11.4721 61.1159C11.5523 61.3487 11.5327 61.5962 11.4183 61.8144L10.037 64.4498C9.8599 64.7873 9.48229 64.979 9.09979 64.9115C8.8112 64.8616 8.56664 64.6719 8.44533 64.4058L8.05207 63.5449C8.00609 63.4432 7.8975 63.3845 7.78696 63.4021C7.67642 63.4197 7.59033 63.5077 7.57761 63.6192L7.26261 66.2557C7.25185 66.3486 7.22837 66.4327 7.19022 66.5149L7.15403 66.5951C3.54229 60.2521 1.4674 52.9269 1.4674 45.1223C1.4674 37.6562 3.35837 30.6245 6.68348 24.4781Z" fill="black"/>
<path d="M76.7524 43.8544L78.0643 41.1173C78.0868 41.0703 78.1063 41.0204 78.121 40.9705L78.7295 38.9661C78.7696 38.833 78.7833 38.6922 78.7676 38.5533L78.4516 35.6351C78.4331 35.4678 78.3744 35.3074 78.2804 35.1675L77.175 32.7864L77.3638 32.2415L77.4049 31.4266L76.9764 30.6949C76.2515 30.4493 75.5198 31.0471 75.6157 31.8062L75.7057 32.5184C75.7272 32.6847 75.7878 32.8431 75.8837 32.9811L77.2445 34.9298C77.3746 35.1166 77.4401 35.3406 77.4303 35.5676L77.2934 38.7421C77.2856 38.9172 77.2347 39.0864 77.1437 39.2361L74.9328 42.8684C74.6491 43.334 74.7753 43.9396 75.2214 44.2536C75.7448 44.6224 76.4756 44.4326 76.7524 43.8544Z" fill="black"/>
<path d="M63.3972 78.7138L66.9179 78.4624C67.2603 78.4379 67.5744 78.2609 67.7729 77.9811L69.5612 75.4533C69.7295 75.2146 69.8009 74.9211 69.7608 74.6315L69.6013 73.4899C69.5612 73.2033 69.6307 72.9117 69.797 72.674L70.0679 72.2856C70.4446 71.7456 70.29 70.9992 69.7295 70.6529C69.2286 70.3438 68.5741 70.4641 68.2161 70.9317L65.9221 73.9291C65.835 74.0436 65.7264 74.1404 65.6032 74.2148L62.6459 75.9952C62.2536 76.2319 62.0394 76.678 62.101 77.132L62.1812 77.7228C62.2604 78.3235 62.7936 78.7568 63.3972 78.7138Z" fill="black"/>
</svg>
