<svg width="90" height="90" viewBox="0 0 90 90" fill="none" xmlns="http://www.w3.org/2000/svg">
<path d="M45 0.611389C20.4564 0.611389 0.489136 20.5787 0.489136 45.1223C0.489136 69.6659 20.4564 89.6331 45 89.6331C69.5436 89.6331 89.5109 69.6659 89.5109 45.1223C89.5109 20.5787 69.5436 0.611389 45 0.611389ZM55.9859 9.64563L58.0862 14.0498L56.6863 16.4211C56.6393 16.5013 56.6403 16.6001 56.6883 16.6783L58.2349 19.2062L55.2522 21.2322C55.2316 21.2458 55.215 21.2615 55.1993 21.2811L51.3822 25.9562L50.2787 24.8273H51.6434C51.7461 24.8273 51.838 24.7647 51.8752 24.6688L52.2421 23.7316C52.2665 23.67 52.2646 23.6005 52.2382 23.5399C52.2117 23.4792 52.1609 23.4313 52.0983 23.4078L46.3275 21.2165C46.0203 20.9622 45.5635 20.923 45.2133 21.1793L41.9879 23.536C41.9292 23.579 41.8764 23.6279 41.8295 23.6837L39.7585 26.1391C39.7193 26.1861 39.6744 26.2291 39.6264 26.2663L37.2708 28.122C37.1015 28.2551 36.9851 28.4449 36.943 28.6562L36.5038 30.8543C36.4187 31.2808 36.6486 31.7083 37.0516 31.8717L38.4183 32.4274C38.6384 32.5174 38.8154 32.6895 38.9093 32.9087L39.4709 34.2107C39.6489 34.6245 40.1038 34.8447 40.5391 34.7273L41.3941 34.4974C41.7072 34.4132 41.9517 34.1677 42.0349 33.8537L42.6179 31.6506C42.6287 31.6095 42.6365 31.5675 42.6414 31.5254L43.0034 28.4879C43.0278 28.2795 43.1247 28.0858 43.2763 27.9401L45 26.2907L44.3338 30.2204C44.2507 30.7086 44.5754 31.1732 45.0626 31.2632C45.6946 31.3806 46.0076 32.1006 45.6623 32.6426L43.6314 35.8258C43.468 36.0822 43.1873 36.2397 42.883 36.2445L39.421 36.3062C39.0287 36.313 38.6765 36.0665 38.5484 35.6957L38.4369 35.3749C38.1649 34.5893 37.0673 34.5531 36.7445 35.3191L36.5292 35.8317C36.4216 36.087 36.2035 36.2798 35.9364 36.3531L34.336 36.7982C34.2186 36.8305 34.109 36.8863 34.0141 36.9626L32.401 38.2461C32.3775 38.2647 32.3521 38.2823 32.3266 38.2989L30.2928 39.6068C30.1549 39.6949 29.9964 39.7448 29.833 39.7506L28.8098 39.7849C28.217 39.8044 27.8022 40.3797 27.9704 40.949L28.1641 41.6035C28.2434 41.8705 28.1954 42.1581 28.035 42.3851L27.268 43.468C27.0489 43.7772 26.6605 43.918 26.2947 43.8202L24.0525 43.2225C23.5917 43.1002 23.1153 43.3545 22.9608 43.8045L21.4944 48.0864C21.331 48.5638 21.5853 49.0813 22.0647 49.2398C23.7346 49.7915 26.7662 51.0897 27.2397 50.9165C27.6398 50.7707 27.8648 49.5303 28.1514 48.7017C28.2404 48.4454 28.4371 48.2478 28.6904 48.1529L32.7013 46.6611C32.8021 46.6239 32.9097 46.6043 33.0173 46.6043H34.8065C35.0677 46.6043 35.3172 46.7168 35.4894 46.9144L38.9886 50.9136C39.1334 51.0789 39.196 51.2922 39.2126 51.5103C39.2204 51.613 38.8712 52.827 39.0395 53.0628C39.2077 53.2986 40.0021 52.5981 40.3689 52.1481C40.6438 51.8106 40.7612 51.3763 40.5352 51.0045L37.5016 46.0203H38.3752C38.6482 46.0203 38.9054 46.1426 39.0776 46.3539L43.0366 51.209C43.0963 51.2824 43.1442 51.3636 43.1785 51.4516L43.5835 52.4866C43.7439 52.8965 44.2653 53.7769 44.6958 53.6908H45.1643C45.7454 53.5744 45.6457 52.2665 45.3874 51.7324L45.2142 51.3733C44.9472 50.8216 45.2935 50.1691 45.9 50.0811L47.2119 49.8903L47.3038 50.308C47.3097 50.3354 47.3204 50.3618 47.3351 50.3863L49.9246 54.5683C49.9725 54.6447 50.0596 54.6848 50.1486 54.6867L55.7188 54.4373L54.6359 58.5147L52.1716 59.5457L49.1468 59.3873L43.3996 58.6947C43.3105 58.6859 43.2186 58.723 43.1667 58.7974L42.1953 60.163L35.458 56.4133L34.9728 54.1193C34.9513 54.0166 34.8672 53.9384 34.7625 53.9237L31.2975 53.4424C31.232 53.4345 31.1645 53.4512 31.1126 53.4913L30.06 54.2935L26.0452 52.0787C26.0149 52.0611 25.9807 52.0513 25.9445 52.0484L21.464 51.6815C21.3789 51.6727 21.2948 51.7118 21.2439 51.7813L18.809 55.0408L16.5737 55.5681C16.5287 55.5789 16.4886 55.6014 16.4563 55.6337L13.0324 59.0087C12.9933 59.0468 12.9688 59.0967 12.96 59.1515L11.8595 66.8142C11.8487 66.8895 11.8741 66.9668 11.926 67.0216L13.5607 68.7248L16.1697 73.3304C16.1932 73.3725 16.2303 73.4077 16.2734 73.4302L22.2241 76.4462C22.2486 76.4589 22.277 76.4677 22.3053 76.4706L26.0491 76.949L33.1141 79.291C33.031 80.0775 32.849 81.8149 32.849 81.9293C32.849 82.0682 32.849 82.0712 34.0973 83.4711C34.965 84.4435 36.4167 86.0723 36.5175 86.2914C36.5175 86.3462 36.497 86.7864 36.4402 87.8057C16.5209 83.8164 1.4674 66.1969 1.4674 45.1223C1.4674 21.1177 20.9964 1.58965 45 1.58965C49.2134 1.58965 53.2839 2.20302 57.1402 3.32509L57.9336 5.30998C57.9492 5.34715 57.9727 5.38041 58.003 5.40682L60.3264 7.39856L59.7757 7.78498C59.7189 7.82411 59.6817 7.88476 59.6729 7.95226C59.6201 8.30639 59.536 8.73096 59.4792 8.90411C59.0429 8.96672 57.2948 9.16628 56.1854 9.29052C56.1052 9.29932 56.0348 9.34628 55.9957 9.41672C55.9565 9.48715 55.9516 9.57226 55.9859 9.64563ZM54.8315 45.2367C54.8707 45.2289 54.9049 45.2103 54.9421 45.1976L58.1997 46.4507L58.7915 48.7506L56.2304 49.1507C55.5691 48.9375 53.685 48.3378 53.3729 48.3378C53.0707 48.3378 51.4194 49.2368 50.041 50.0194L48.8553 49.4804C49.0363 49.3141 49.1557 49.0842 49.1557 48.822V47.2764C49.1557 47.0954 49.2104 46.9183 49.3112 46.7677L50.3198 45.2788C50.6152 44.8425 51.2188 44.7495 51.6326 45.0753L52.0914 45.4373C52.2978 45.5997 52.5639 45.6652 52.8222 45.6163L54.8315 45.2367ZM50.7326 37.7119L49.7162 35.3612C49.6203 35.1391 49.4384 34.964 49.2124 34.876L48.6088 34.6412C48.2948 34.5189 48.0747 34.2332 48.0365 33.8987L47.7274 31.182C47.7039 30.9717 47.7538 30.7594 47.8702 30.5824L47.9798 30.4151L50.8637 37.9105C50.8148 37.8469 50.7639 37.7863 50.7326 37.7119ZM69.707 70.6999C69.6277 70.6275 69.5123 70.6128 69.4164 70.6647L64.6855 73.2884L61.382 71.5001L58.8982 68.5761L54.495 62.4835L55.5691 62.0853L59.3208 66.1539L64.4977 72.2269C64.5867 72.3297 64.7413 72.3443 64.845 72.2582L70.7958 67.408C70.8173 67.3904 70.8359 67.3689 70.8505 67.3464L75.4973 59.8461C75.5325 59.7884 75.5442 59.7189 75.5266 59.6533C75.51 59.5878 75.467 59.532 75.4092 59.4978L73.127 58.1938C73.0458 58.1478 72.946 58.1488 72.8667 58.2006L69.3685 60.4555L66.6988 57.7858L67.1645 56.7626L73.6679 57.4757C73.7217 57.4826 73.7648 57.4728 73.8078 57.4513L79.4495 54.631L85.8991 60.0407C82.2316 70.0601 74.9837 78.3675 65.7108 83.4045L66.599 78.0075L69.7647 70.9865C69.8087 70.8877 69.7862 70.7723 69.707 70.6999ZM86.0703 59.534L79.6441 54.1438C79.5678 54.0792 79.4602 54.0665 79.3722 54.1115L73.6494 56.9729L67.0383 56.247C66.9238 56.2353 66.8279 56.294 66.7829 56.3918L66.1715 57.7369C66.1285 57.8318 66.149 57.9424 66.2224 58.0167L69.1572 60.9515C69.2423 61.0347 69.3714 61.0493 69.4692 60.9848L73.0096 58.7025L74.9358 59.803L70.4475 67.048L64.7188 71.7173L59.6935 65.8232L55.8215 61.6245C55.753 61.5492 55.6445 61.5238 55.5515 61.56L54.0137 62.1303C53.9413 62.1577 53.8846 62.2174 53.8621 62.2917C53.8396 62.3661 53.8523 62.4473 53.8983 62.5109L58.5059 68.8852L61.0327 71.8611C61.0533 71.8845 61.0767 71.9041 61.1041 71.9198L64.5691 73.7951C64.6415 73.8362 64.7325 73.8352 64.8088 73.7941L69.0007 71.4688L66.1304 77.8343C66.1216 77.8549 66.1148 77.8754 66.1109 77.896L65.1571 83.6892C59.1271 86.8539 52.2714 88.6549 45 88.6549C42.2433 88.6549 39.5501 88.3859 36.9342 87.8938C36.9695 87.2511 37.0154 86.398 37.0154 86.2914C37.0154 86.0605 36.6809 85.6193 34.469 83.1385C33.9887 82.5994 33.4927 82.0448 33.3518 81.8638C33.3802 81.5204 33.5289 80.101 33.6307 79.1432C33.6434 79.0268 33.572 78.9173 33.4604 78.8801L26.1577 76.4648L22.41 75.9805L16.5639 73.0183L13.9559 68.4283L12.3691 66.7634L13.4403 59.3031L16.7547 56.0367L19.0105 55.5055C19.0683 55.4918 19.1182 55.4586 19.1534 55.4116L21.5609 52.1902L25.8505 52.5414L29.9612 54.809C30.0463 54.8569 30.1539 54.8481 30.2322 54.7894L31.3317 53.9511L34.5199 54.3942L34.9924 56.6286C35.008 56.699 35.053 56.7597 35.1157 56.7949L42.1474 60.7079C42.2579 60.7686 42.3969 60.7373 42.4722 60.6345L43.4866 59.2063L49.1028 59.8832L52.201 60.0466C52.2372 60.0456 52.2763 60.0427 52.3105 60.027L54.9401 58.9265C55.0115 58.8962 55.0653 58.8355 55.0839 58.7602L56.2862 54.2357C56.3067 54.1585 56.2901 54.0773 56.2392 54.0147C56.1903 53.953 56.1228 53.9295 56.0338 53.9217L50.2689 54.18L47.7792 50.1583L47.7039 49.8169L48.2253 49.7406L49.95 50.5252C50.0214 50.5575 50.1065 50.5545 50.176 50.5144C51.57 49.722 53.1538 48.8768 53.371 48.8348C53.5637 48.8426 54.9274 49.2515 56.1336 49.6418C56.1698 49.6536 56.2099 49.6565 56.248 49.6506L59.1398 49.1987C59.2092 49.1879 59.2718 49.1478 59.31 49.0891C59.3491 49.0304 59.3609 48.958 59.3433 48.8895L58.6497 46.1993C58.6291 46.1211 58.5734 46.0575 58.498 46.0281L55.4097 44.8405C55.4742 44.7427 55.528 44.637 55.5515 44.5177L56.1923 41.2532C56.2725 40.8433 56.0622 40.4315 55.6836 40.2554L51.569 38.3517L48.3163 29.8976L49.1361 28.6483C49.3014 28.396 49.3308 28.077 49.2134 27.7992L46.7296 21.9003L51.6864 23.7825L51.4732 24.3274H49.6869C49.5861 24.3274 49.4961 24.388 49.457 24.48C49.4178 24.5729 49.4384 24.6795 49.5088 24.751L51.2208 26.504C51.2707 26.5549 51.3401 26.5774 51.4105 26.5793C51.481 26.5764 51.5475 26.5431 51.5925 26.4874L55.5642 21.6244L58.7142 19.485C58.8238 19.4097 58.8571 19.2619 58.7866 19.1485L57.194 16.5453L58.5851 14.1887C58.6272 14.1173 58.6311 14.0292 58.5959 13.9539L56.5885 9.74639C58.0246 9.58596 59.5996 9.404 59.7121 9.36585C59.8334 9.32476 59.9713 9.27878 60.1493 8.13128L60.8762 7.62161C60.9388 7.57759 60.9779 7.50617 60.9818 7.42987C60.9858 7.35259 60.9535 7.27824 60.8948 7.22737L58.3738 5.06639L57.7467 3.49824C75.5501 8.96085 88.5326 25.5522 88.5326 45.1223C88.5326 50.172 87.659 55.0203 86.0703 59.534Z" fill="black"/>
<path d="M28.4664 34.6275C28.5036 34.5629 28.5486 34.5022 28.6004 34.4484C28.6004 34.4484 29.3175 34.0757 29.3175 33.704C29.3175 33.3322 28.6552 32.756 28.4459 32.756C28.2365 32.756 27.9616 33.2804 27.6818 33.3215C27.4021 33.3626 26.9022 32.9957 26.7036 33.1835C26.505 33.3714 26.821 34.3663 26.7036 34.4983C26.5862 34.6304 25.7713 34.9933 25.7713 35.2173C25.7713 35.4414 25.9239 35.8493 26.1381 35.951C26.3524 36.0528 27.6564 35.8493 27.8501 35.7065C28.0438 35.5637 28.4664 34.6275 28.4664 34.6275Z" fill="black"/>
<path d="M32.2063 30.2194C32.0488 29.9494 31.184 30.2928 30.9219 30.3114C30.6597 30.3299 29.7342 31.5498 29.5513 31.9979C29.3674 32.4459 29.5719 33.1601 29.6071 33.3078C29.6423 33.4555 30.2654 33.8448 30.3564 33.9192C30.4474 33.9935 30.1833 34.9532 30.0199 35.1264C29.8565 35.2995 28.2884 36.1956 28.3236 36.3639C28.3588 36.5321 29.3175 37.031 29.3175 37.1895C29.3175 37.348 27.5439 37.7853 27.5439 37.9692C27.5439 38.1531 31.0392 38.2138 31.3044 38.1218C31.5695 38.0298 32.2239 36.9704 32.2063 36.7004C32.1887 36.4304 31.772 34.8779 31.772 34.8779C31.7661 34.8094 31.7524 34.7409 31.7319 34.6754C31.7319 34.6754 31.4462 33.7861 31.366 33.5367C31.2858 33.2872 32.2249 32.0184 32.2063 31.7944C32.1877 31.5704 31.5284 31.5704 31.4726 31.2896C31.4169 31.0089 32.3638 30.4894 32.2063 30.2194Z" fill="black"/>
<path d="M29.745 49.9373C29.8829 49.9989 30.3867 50.0596 30.4631 49.9373C30.5394 49.815 30.3867 49.6771 30.2341 49.5088C30.0815 49.3405 29.7362 49.4041 29.4241 49.5088C29.2344 49.5734 29.6081 49.8756 29.745 49.9373Z" fill="black"/>
<path d="M34.3771 51.389C34.6833 51.4046 34.9132 50.7296 34.9122 50.4567C34.9112 50.2004 35.1861 48.8083 35.2331 48.5921C35.2986 48.2889 34.6265 48.0815 34.515 48.4542C34.3096 49.1409 34.8662 49.1879 34.8359 49.5841C34.8065 49.9676 34.3624 50.0439 34.1785 50.1202C33.9946 50.1965 33.842 50.7013 33.7657 51.0065C33.6894 51.3117 34.0709 51.3743 34.3771 51.389Z" fill="black"/>
<path d="M36.991 53.6517C37.1592 53.7133 37.5261 54.2788 37.9996 54.3854C38.4731 54.492 38.565 54.4314 38.6726 54.1868C38.7802 53.9422 38.7695 53.3934 38.6726 53.0863C38.5846 52.8065 37.71 53.0246 37.4341 53.01C37.1583 52.9953 36.5019 52.9425 36.3639 53.2848C36.2553 53.5539 36.8227 53.5901 36.991 53.6517Z" fill="black"/>
<path d="M53.957 55.8068C54.2172 55.7765 54.0636 55.6083 53.957 55.3882C53.8503 55.168 53.8044 55.3177 53.5441 55.2717C53.2839 55.2258 52.92 55.3422 52.6578 55.5163C52.5268 55.6034 53.6977 55.8372 53.957 55.8068Z" fill="black"/>
<path d="M38.3733 54.9254C38.4408 55.0819 38.7303 55.0036 38.7861 55.0036C38.8418 55.0036 38.9426 54.8364 38.9309 54.7806C38.9201 54.7248 38.7734 54.6104 38.4955 54.5908C38.4046 54.584 38.3058 54.7689 38.3733 54.9254Z" fill="black"/>
<path d="M45.9988 55.0232C46.3451 55.1416 46.7941 55.2512 47.1404 55.2619C47.4868 55.2727 47.8947 55.4556 48.2821 55.3734C48.6695 55.2922 48.017 55.0477 47.8135 55.0232C47.61 54.9988 47.3038 54.986 47.0182 55.0232C46.7325 55.0604 46.1749 54.1477 45.5919 54.1712C45.0812 54.1917 45.6525 54.9049 45.9988 55.0232Z" fill="black"/>
<path d="M66.8367 45.5243C66.826 45.496 66.8113 45.4696 66.7908 45.4471L64.6895 43.0337L65.2862 41.5037C65.3185 41.4215 65.3048 41.3276 65.25 41.2581L64.4752 40.2799C64.4302 40.2231 64.3647 40.1889 64.2923 40.185C64.216 40.185 64.1504 40.2085 64.1005 40.2593L62.1039 42.2971C62.0589 42.344 62.0335 42.4066 62.0335 42.4722V44.8131C62.0335 44.8748 62.056 44.9354 62.098 44.9814L64.3568 47.4603V50.176C64.3568 50.2445 64.3842 50.309 64.4341 50.357C64.4801 50.401 64.5417 50.4254 64.6063 50.4254C64.6102 50.4254 64.6141 50.4254 64.618 50.4254L68.2454 50.2572C68.3247 50.2533 68.398 50.2122 68.4421 50.1456C68.4861 50.0791 68.4959 49.996 68.4675 49.9216L66.8367 45.5243ZM64.8558 49.9148V47.3635C64.8558 47.3018 64.8333 47.2412 64.7912 47.1952L62.5324 44.7163V42.5739L64.26 40.8111L64.7697 41.4548L64.17 42.9926C64.1358 43.0787 64.1524 43.1765 64.214 43.247L66.3858 45.7396L67.8815 49.7729L64.8558 49.9148Z" fill="black"/>
<path d="M28.3236 22.8825C28.5633 23.1495 28.5965 23.3853 28.7824 23.4782C29.1082 23.6416 29.7763 23.7434 30.2654 23.7023C30.7546 23.6612 31.2447 23.2337 31.1214 22.7847C30.9835 22.2857 29.4036 22.0216 29.1649 21.8573C28.9203 21.689 29.1952 21.4601 28.9663 21.1539C28.7364 21.0972 28.1994 21.0248 27.8804 21.5217C27.8394 21.5853 28.4116 22.1498 28.3539 22.2857C28.3207 22.365 27.8951 22.0568 27.7582 22.3474C27.7132 22.4423 28.1436 22.681 28.3236 22.8825Z" fill="black"/>
</svg>
