<svg width="90" height="90" viewBox="0 0 90 90" fill="none" xmlns="http://www.w3.org/2000/svg">
<path d="M45 0.611389C20.4564 0.611389 0.489136 20.5787 0.489136 45.1223C0.489136 69.6659 20.4564 89.6331 45 89.6331C69.5436 89.6331 89.5109 69.6659 89.5109 45.1223C89.5109 20.5787 69.5436 0.611389 45 0.611389ZM56.3067 74.4016L53.3964 72.3619L51.2648 70.8398C51.165 70.7684 51.0505 70.7234 50.9292 70.7067L47.0632 70.1736C46.6787 70.1207 46.397 69.7842 46.4126 69.3959L46.4586 68.2503C46.4645 68.1143 46.5065 67.9813 46.5809 67.8678C46.5809 67.8678 47.8878 66.193 47.8526 65.923C47.8174 65.653 47.2021 65.5043 47.2021 65.5043C46.9135 65.3185 46.5349 65.3517 46.2825 65.5836L43.8711 67.8042C43.7077 67.9549 43.4866 68.0253 43.2665 67.9979L40.6448 67.6702C40.457 67.6467 40.2858 67.5538 40.1635 67.41L37.7521 64.573C37.6425 64.4439 37.5789 64.2805 37.573 64.1113L37.4302 60.117C37.4234 59.9194 37.4938 59.7257 37.6278 59.58L39.0688 58.0089C39.1627 57.9062 39.284 57.8318 39.418 57.7937L44.2174 56.4222C44.3045 56.3977 44.3954 56.3879 44.4854 56.3957L49.8747 56.833C50.1809 56.8575 50.4411 57.0658 50.534 57.3583L51.5279 60.5162C51.658 60.929 52.108 61.1481 52.513 60.9965L53.1225 60.7676C53.4688 60.6375 53.6703 60.2755 53.5979 59.9126L52.7273 55.5574C52.6872 55.3568 52.7302 55.1485 52.8466 54.9802L56.1708 50.1789C56.2754 50.0282 56.3214 49.8433 56.2999 49.6614L56.1874 48.7017C56.1766 48.6078 56.1835 48.5119 56.207 48.42L56.8458 46.0056C56.8839 45.8628 56.9622 45.7347 57.0717 45.6368L58.9676 43.9376C59.1554 43.7693 59.2464 43.5189 59.2112 43.2685L59.0762 42.3225C59.0429 42.0906 59.1192 41.8568 59.2826 41.6895L61.0797 39.8406C61.4573 39.4523 62.1088 39.5765 62.3172 40.0764C62.3172 40.0764 62.4727 40.9872 62.6918 40.9764C62.911 40.9666 63.9303 37.979 63.9303 37.979C64.0976 37.573 63.8853 37.1103 63.4676 36.9733L59.7571 35.7593V34.6177L62.4248 33.8967C62.6449 33.837 62.8807 33.8811 63.0655 34.0151L65.1062 35.4991C65.3263 35.6595 65.6169 35.6889 65.8644 35.5744L66.557 35.2575C66.9982 35.055 67.1371 34.4954 66.8407 34.111L64.4772 31.0451C64.4283 30.9815 64.3696 30.9267 64.303 30.8817L59.8686 27.8726C59.848 27.8589 59.8275 27.8462 59.806 27.8344L54.5527 24.9691C54.4901 24.9349 54.4226 24.9094 54.3522 24.8948L51.074 24.1797C50.5497 24.0652 50.0762 24.5191 50.1701 25.0483L50.444 26.5989C50.4567 26.6732 50.4812 26.7456 50.5164 26.8131L51.6307 28.977C51.7647 29.2363 51.7363 29.5493 51.5592 29.7812L51.0349 30.4669C50.8813 30.6675 50.8383 30.9306 50.9204 31.1693L51.7207 33.5074C51.8018 33.7441 51.7598 34.0043 51.6101 34.2049C51.6101 34.2049 51.4066 34.9043 51.1161 34.8642C50.8255 34.8231 49.2907 31.8218 49.2907 31.8218C49.2055 31.68 49.0764 31.5704 48.9238 31.5098L43.3291 29.2715C43.1462 29.1981 43.0004 29.0592 42.9202 28.8792C42.6766 28.3294 42.1679 27.1438 42.2305 26.9569C42.298 26.7554 44.7995 23.7326 45.6789 22.6731C45.8648 22.4491 45.9029 22.141 45.7816 21.8778L45.2054 20.6295C45.0822 20.3625 44.8141 20.1913 44.5197 20.1913H39.2067C39.0522 20.1913 38.9025 20.1443 38.7753 20.0563L35.278 17.6233C35.2389 17.596 35.1978 17.5735 35.1548 17.5539L31.1019 15.7441C30.8299 15.6228 30.6548 15.3528 30.6548 15.0554V14.353C30.6548 14.127 30.554 13.9138 30.3799 13.77L27.5586 11.4505C27.2407 11.1893 26.0188 10.8323 25.6207 10.4498L27.3326 6.38411L22.8688 8.82976L21.5217 10.079L21.4298 11.0573C21.286 11.2255 22.7817 11.2744 22.5607 11.2744L23.1721 12.3417L21.7966 14.2063L20.5445 14.8891C20.2901 14.8891 20.0524 15.0173 19.9125 15.2315L18.2446 17.7848C17.9266 18.2719 18.2563 18.9215 18.8374 18.9508L21.7947 19.1035C22.0774 19.1181 22.3278 19.2893 22.4442 19.5476L23.6319 22.1869C23.6915 22.319 23.7111 22.4648 23.6905 22.6076L22.7573 28.9056C22.7485 28.9633 22.7465 29.0211 22.7514 29.0788L23.2875 35.5079C23.3051 35.7192 23.2327 35.9286 23.0889 36.0841L21.3388 37.9692C21.2459 38.07 21.1813 38.1932 21.1529 38.3282L19.7932 44.8131C19.7521 45.0107 19.7912 45.2172 19.9027 45.3854L21.7957 48.2361C21.8299 48.2869 21.8573 48.3427 21.8778 48.4004L23.1447 51.9623C23.1496 51.975 23.1545 51.9877 23.1594 52.0004L25.2215 56.9348C25.3477 57.238 25.6559 57.4239 25.9836 57.3955L26.8083 57.3241C27.1115 57.2977 27.4021 57.4562 27.5429 57.7272L30.1588 62.7417C30.2146 62.8493 30.2449 62.9697 30.2449 63.091V66.6352C30.2449 66.9433 30.4317 67.2202 30.7184 67.3356L38.2989 70.3829C38.4682 70.4504 38.655 70.4553 38.8272 70.3956L40.2505 69.9026C40.5147 69.8106 40.8082 69.8732 41.0126 70.064L41.7717 70.7723C41.8588 70.8535 41.9625 70.9122 42.077 70.9454L44.9002 71.7632C44.9667 71.7828 45.0313 71.8112 45.09 71.8484L47.3684 73.2727C47.5239 73.3695 47.7088 73.4067 47.8898 73.3774L51.2824 72.8237C51.4878 72.7904 51.6972 72.8432 51.8625 72.9694L55.2561 75.5648C55.3324 75.6225 55.3921 75.6665 55.4449 75.6988L56.3302 77.5888L53.327 81.2553C53.2722 81.3218 53.2565 81.4109 53.2829 81.492L53.4864 82.1015L52.425 83.5053C52.3751 83.5709 52.3614 83.656 52.3868 83.7342C52.4123 83.8125 52.4749 83.8722 52.5532 83.8956L53.8787 84.286L55.7902 86.1583C55.8254 86.1926 55.8685 86.2161 55.9164 86.2249L58.0705 86.6514C53.9433 87.9535 49.5528 88.6588 45.001 88.6588C20.9974 88.6588 1.46837 69.1307 1.46837 45.1262C1.46837 21.1216 20.9974 1.59356 45.001 1.59356C69.0046 1.59356 88.5336 21.1216 88.5336 45.1262C88.5336 54.5654 85.5039 63.3062 80.3788 70.4455L77.0155 69.6375C76.9882 69.6306 76.9578 69.6287 76.9295 69.6326L72.9548 70.0806L69.6532 69.6326C69.617 69.6277 69.5827 69.6306 69.5495 69.6404L65.6129 70.8124L62.3524 70.9757C62.3221 70.9767 62.2908 70.9845 62.2634 70.9973L59.6583 72.1594L56.3067 74.4016ZM59.0175 86.3266L56.0857 85.7465L54.1829 83.8829C54.1536 83.8545 54.1184 83.833 54.0792 83.8213L53.0393 83.5151L53.9618 82.2952C54.0117 82.2297 54.0254 82.1436 54 82.0663L53.7985 81.4627L56.8145 77.7815C56.8761 77.7072 56.8878 77.6044 56.8477 77.5174L55.8528 75.3916L55.8401 75.3143L59.896 72.5899L62.4218 71.4678L65.6941 71.2966L69.6385 70.1305L72.9479 70.5717L76.9392 70.1286L80.0648 70.8799C74.8409 77.9752 67.5166 83.427 59.0175 86.3266Z" fill="black"/>
<path d="M40.815 15.3137C40.9383 15.0897 40.9872 14.8324 40.9549 14.579L40.8805 13.9969C40.8101 13.4442 40.3709 13.0109 39.8172 12.9473L38.2735 12.7702L38.9837 13.8492C39.1803 14.1476 39.2341 14.5164 39.1334 14.8588L38.9671 15.4193L37.305 14.173C36.8481 13.8306 36.2133 13.8531 35.7828 14.2288L34.9317 14.9713L35.3798 15.9906H36.3991L36.2563 16.7791C36.1917 17.1323 36.2876 17.4952 36.5175 17.7711L36.811 18.1232C37.0409 18.3991 37.3823 18.5586 37.7413 18.5586H39.4973H41.0058V17.866C41.0058 17.866 40.2721 16.5209 40.2721 16.3986C40.2721 16.3154 40.5978 15.7089 40.815 15.3137Z" fill="black"/>
<path d="M55.5975 20.3508L54.1839 18.3571C54.0685 18.1947 53.911 18.0685 53.7271 17.9922L48.2635 15.7158C48.1803 15.6815 48.0933 15.6571 48.0033 15.6443L46.4645 15.4282C45.9313 15.3528 45.4265 15.6903 45.2915 16.2108L45.1458 16.7703C45.0548 17.1215 45.1487 17.4952 45.3972 17.7603L45.899 18.2984C46.0555 18.4666 46.1534 18.6809 46.1778 18.9088L46.4224 21.1979C46.4508 21.465 46.5799 21.7125 46.7844 21.8876L48.5462 23.4078L47.9602 21.8827C47.8194 21.5168 47.8927 21.103 48.15 20.8066C48.3965 20.5239 48.4738 20.1316 48.3554 19.7765L47.8135 18.1497L48.6205 18.4021C48.9336 18.4999 49.184 18.7376 49.2985 19.0458L49.8835 20.6257C49.9167 20.7147 49.9373 20.8057 49.9451 20.8996C49.9833 21.332 50.0958 22.6135 50.0958 22.7152C50.0958 22.8209 51.9965 23.0195 52.5013 23.0703C52.5845 23.0791 52.6637 23.0967 52.7429 23.1241L54.5938 23.7717C54.8941 23.8774 55.2258 23.8412 55.4977 23.6749L56.3322 23.1633L53.8044 20.3918L55.5975 20.3508Z" fill="black"/>
<path d="M64.7501 21.3417C64.7355 21.3065 64.7198 21.2722 64.7022 21.239L63.4569 18.9029C63.4363 18.8638 63.4158 18.8305 63.3913 18.7943C63.2094 18.5341 62.3661 17.3171 62.3661 17.1723C62.3661 17.0941 62.4512 16.8544 62.5393 16.6274C62.6586 16.3203 62.6381 15.9779 62.4825 15.6883L61.3066 13.5039L60.2306 11.4749C60.1611 11.3429 60.0652 11.2265 59.9498 11.1326L58.1224 9.63875C58.0177 9.55364 57.9043 9.48908 57.7771 9.44603C57.2087 9.25429 55.5388 8.69473 55.4381 8.69473C55.3539 8.69473 54.1018 7.92875 53.3221 7.44647C52.9464 7.21462 52.47 7.2244 52.1041 7.47288L51.8537 7.64212C51.5915 7.81919 51.2677 7.87788 50.9596 7.80353L50.7698 7.75756C50.2768 7.63723 49.7651 7.86419 49.5215 8.30832L48.8896 9.46266C48.7996 9.62799 48.7516 9.81288 48.7516 10.0007V11.9582C48.7516 12.2928 48.9003 12.6088 49.1576 12.822L49.6223 13.2065C49.8238 13.3728 50.0762 13.4638 50.3374 13.4638H52.6001C52.9014 13.4638 53.1881 13.5831 53.3994 13.7983C53.8278 14.2366 54.5371 14.9556 54.6212 15.0123C54.7132 15.073 56.2197 15.8654 56.9729 16.2596C57.241 16.4005 57.4406 16.6411 57.5266 16.9317C57.644 17.3279 57.8084 17.8718 57.8827 18.0694C58.005 18.3952 58.9422 20.2705 59.0645 20.2705C59.1721 20.2705 61.0357 21.2742 61.4915 21.5207C61.5581 21.5569 61.6207 21.599 61.6794 21.6479L63.0724 22.8198C63.2749 22.9901 63.5302 23.083 63.7944 23.083C64.5916 23.083 65.1336 22.275 64.8323 21.5373L64.7501 21.3417Z" fill="black"/>
<path d="M67.4032 15.0496C67.4667 15.0026 67.5049 14.9273 67.5049 14.848V13.8698C67.5049 13.8081 67.4834 13.7494 67.4423 13.7044L66.464 12.6039C66.4171 12.5501 66.3496 12.5208 66.2782 12.5208H64.9145C64.8342 12.5208 64.7599 12.5589 64.7129 12.6235C64.665 12.688 64.6523 12.7712 64.6777 12.8475L65.1326 14.2171L65.2148 15.2012C65.2226 15.301 65.2891 15.3851 65.384 15.4174C65.4095 15.4262 65.4368 15.4301 65.4633 15.4301C65.5327 15.4301 65.6022 15.4008 65.6491 15.3469L66.1647 14.7688L67.1811 15.0877C67.2564 15.1112 67.3386 15.0965 67.4032 15.0496ZM67.006 14.5096L66.1598 14.2435C66.0639 14.2141 65.9641 14.2435 65.8986 14.3159L65.6589 14.5849L65.6168 14.1192L65.2578 13.0197H66.1657L67.006 13.9656V14.5096V14.5096Z" fill="black"/>
<path d="M62.5402 65.2089H64.5056C64.6533 65.2089 64.8 65.1874 64.9409 65.1453L66.9962 64.5358V64.0467C66.9962 64.0467 64.5241 64.7393 64.3813 64.7197C64.3295 64.7119 64.2248 64.663 64.1123 64.6024C63.8139 64.4419 63.4676 64.393 63.134 64.4527L61.3154 64.7784C61.2264 64.7941 61.1364 64.8019 61.0454 64.8019H58.8346C58.635 64.8019 58.4364 64.7628 58.2515 64.6865L56.7421 64.0663C56.7117 64.0536 56.6814 64.0428 56.6511 64.032L55.3725 63.5996L53.6958 63.1154C53.4972 63.0577 53.2898 63.0411 53.0844 63.0665L51.7197 63.2338C51.5074 63.2602 51.3029 63.3296 51.119 63.4392L49.4208 64.4546L51.0916 64.2707L52.0093 64.4742L54.6789 64.5554L54.7601 65.248L55.2639 65.5346C55.6904 65.7772 56.206 65.8007 56.6531 65.5992L56.9935 65.4456C57.2772 65.3175 57.5941 65.2783 57.9003 65.3341L59.0938 65.5522C59.2474 65.5806 59.4039 65.5845 59.5585 65.5659L62.3495 65.2196C62.414 65.2128 62.4776 65.2089 62.5402 65.2089Z" fill="black"/>
</svg>
