<svg width="90" height="90" viewBox="0 0 90 90" fill="none" xmlns="http://www.w3.org/2000/svg">
<path d="M45 0.618103C20.4594 0.618103 0.494507 20.583 0.494507 45.1236C0.494507 69.6642 20.4594 89.6291 45 89.6291C69.5406 89.6291 89.5055 69.6642 89.5055 45.1236C89.5055 20.583 69.5406 0.618103 45 0.618103ZM14.971 25.192L12.0689 25.682C11.9808 25.6967 11.9065 25.7583 11.8762 25.8424C11.8459 25.9266 11.8625 26.0214 11.9202 26.0889L17.5034 32.7022C17.5592 32.7677 17.6453 32.8019 17.7294 32.7882C17.8145 32.7755 17.8878 32.7207 17.9221 32.6415L19.2259 29.6552C19.2729 29.5467 19.2377 29.4205 19.1418 29.352L17.0114 27.8388L17.209 23.3961C17.211 23.3384 17.1934 23.2807 17.1591 23.2347L15.8836 21.5484L17.5416 19.8728L18.8885 20.5282C18.9775 20.5703 19.0841 20.5575 19.1604 20.493L22.8284 17.3551C22.8842 17.3082 22.9155 17.2387 22.9155 17.1653V15.0056C22.9155 14.9313 22.8822 14.8608 22.8255 14.8129L21.4258 13.6567C22.5888 13.5658 24.3915 13.4279 24.7016 13.4171C24.7339 13.423 24.773 13.42 24.8053 13.4132C24.8767 13.3946 24.9354 13.3477 24.9686 13.286C25.2738 12.9887 27.3543 11.2799 28.619 10.2489L34.9359 6.58086C34.9564 6.56912 34.974 6.55543 34.9907 6.5388L36.1322 5.3572C36.183 5.30438 36.2085 5.232 36.2006 5.15864C36.1928 5.08528 36.1547 5.01877 36.094 4.97768L35.7164 4.71848L36.8041 3.82837C36.8491 3.79218 36.8795 3.74033 36.8912 3.6836L37.1612 2.31811C39.7053 1.85252 42.3228 1.59625 45 1.59625C69.0017 1.59625 88.5273 21.1219 88.5273 45.1236C88.5273 69.1253 69.0017 88.6509 45 88.6509C20.9983 88.6509 1.47265 69.1253 1.47265 45.1236C1.47265 36.4661 4.02365 28.3974 8.39888 21.611L10.0353 21.8546C10.1155 21.8683 10.1947 21.8389 10.2515 21.7812L13.9088 18.0065L15.0209 19.0864L14.5534 21.8105C14.5494 21.835 14.5485 21.8594 14.5524 21.8839L14.971 25.192ZM36.632 2.41202L36.4178 3.49775L35.1423 4.54143C35.0816 4.59132 35.0474 4.66664 35.0513 4.74489C35.0552 4.82314 35.0943 4.89552 35.1589 4.94052L35.5678 5.22124L34.6552 6.16613L28.3364 9.83808C25.7091 11.9734 24.8972 12.6688 24.637 12.9202C24.0237 12.9495 21.1206 13.1794 20.7714 13.2068C20.6697 13.2146 20.5836 13.2841 20.5533 13.3809C20.523 13.4777 20.5533 13.5834 20.6325 13.6479L22.4166 15.122V17.0489L18.9599 20.0059L17.5993 19.3437C17.5034 19.2977 17.388 19.3163 17.3127 19.3926L15.3769 21.3489C15.2899 21.4369 15.2801 21.5758 15.3554 21.6746L16.7072 23.4616L16.5067 27.9503C16.5028 28.0345 16.5429 28.1157 16.6114 28.1646L18.688 29.6396L17.6257 32.0722L12.5834 26.0997L15.2909 25.6429C15.4229 25.6214 15.5139 25.4981 15.4963 25.3651L15.0522 21.8565L15.5354 19.0395C15.5491 18.9583 15.5227 18.8761 15.463 18.8184L14.077 17.4735C14.03 17.4285 13.9684 17.403 13.9029 17.403C13.8237 17.4021 13.7699 17.4304 13.7239 17.4783L9.98151 21.3401L8.69428 21.1483C15.0199 11.6026 25.0028 4.6862 36.632 2.41202Z" fill="black"/>
<path d="M35.7448 36.9345L32.5287 40.1507C32.4201 40.2593 32.3301 40.3825 32.2597 40.5185L31.3041 42.3662C31.1984 42.5706 31.0458 42.7477 30.86 42.8836L26.6569 45.9511C26.1267 46.3384 25.9125 47.028 26.1316 47.6472L29.156 56.2049C29.1756 56.2617 29.1922 56.3194 29.2059 56.3781L29.3184 56.8818C29.5092 57.7426 30.4032 58.2483 31.2395 57.9695L35.4347 56.5708C35.5081 56.5463 35.5795 56.516 35.648 56.4808L39.8149 54.325C40.1112 54.1714 40.4507 54.1225 40.7783 54.1851L44.0052 54.8062C44.3329 54.8688 44.6293 55.04 44.8474 55.2923L46.5445 57.2506C46.6012 57.3161 46.6638 57.3768 46.7313 57.4315L50.5412 60.5225C50.8063 60.7376 51.1369 60.855 51.4773 60.855H54.9223C55.3507 60.855 55.7586 60.6702 56.0413 60.3474L59.9812 55.844C60.1006 55.708 60.1935 55.5506 60.2571 55.3804L62.0989 50.4006C62.2652 49.9527 62.2046 49.4518 61.9375 49.0547L56.8756 41.5357C56.8385 41.481 56.8052 41.4242 56.7768 41.3646L54.3696 36.5012C53.8013 35.3539 52.1453 35.4135 51.6612 36.5981L51.1212 37.9195C50.8053 38.6942 49.9113 39.0552 49.1454 38.7177L47.0306 37.7855C46.3048 37.4657 45.9576 36.6323 46.2422 35.8919C46.5983 34.9646 45.9635 33.9561 44.9736 33.8769L41.8308 33.6255C41.2322 33.5776 40.6639 33.8945 40.39 34.4286L39.721 35.7314C39.4598 36.2401 38.9306 36.5531 38.3594 36.5384L36.8345 36.4983C36.4276 36.4895 36.0334 36.647 35.7448 36.9345Z" fill="black"/>
<path d="M54.6797 63.3865L53.9099 63.1801C53.4091 63.0461 52.9171 63.4227 52.9171 63.9421V64.9378C52.9171 65.3731 53.2702 65.7262 53.7055 65.7262H54.2845C54.6484 65.7262 54.9643 65.4778 55.0504 65.1237L55.2421 64.3343C55.3429 63.9176 55.0935 63.497 54.6797 63.3865Z" fill="black"/>
<path d="M67.4044 69.9049L74.9889 64.3285C75.2549 64.1329 75.3488 63.7788 75.2148 63.4765L73.9012 60.2076H73.6723L73.4865 63.232C73.4747 63.4061 73.3994 63.5704 73.2732 63.6917L70.1099 66.7426C70.0669 66.7836 70.0199 66.8189 69.9681 66.8482L66.6434 68.7262C66.2824 68.9297 66.1758 69.4012 66.4135 69.7406C66.6385 70.0653 67.0865 70.1387 67.4044 69.9049Z" fill="black"/>
<path d="M42.7747 26.579C42.8618 26.669 42.9713 26.7374 43.0917 26.7766L47.7682 28.2741C47.8924 28.3142 47.9696 28.4374 47.9511 28.5666L47.7574 29.8988C47.6997 30.2959 47.9628 30.6735 48.3541 30.7566L52.9102 31.7377C53.1597 31.7934 53.4218 31.7162 53.6047 31.5391L54.4665 30.7038C54.5516 30.6207 54.6875 30.605 54.7893 30.6666L58.1247 32.6767C58.2499 32.753 58.3839 32.7912 58.5228 32.7912C58.8084 32.7912 59.0774 32.621 59.2095 32.3569C59.3396 32.0957 59.3112 31.7983 59.1322 31.5607L55.5209 26.756C55.4309 26.6357 55.3165 26.5496 55.1776 26.4988C53.099 25.7339 48.1995 23.9556 47.6126 23.9556C47.4845 23.9556 47.4111 24.0123 47.3857 24.0466C47.2898 24.1317 46.6149 24.4965 45.0254 25.2409C44.9149 25.2947 44.7789 25.2585 44.7036 25.1597L43.3978 23.4382C43.1973 23.1731 42.8217 23.0684 42.5106 23.1878L41.3965 23.6211C41.1569 23.714 40.9808 23.9194 40.926 24.1708C40.8703 24.4222 40.9446 24.6824 41.1226 24.8672L42.7747 26.579ZM41.5755 24.0857L42.6896 23.6524C42.8021 23.6113 42.9273 23.6465 42.9987 23.7394L44.3045 25.461C44.5168 25.7407 44.9198 25.8415 45.2367 25.6928C46.9602 24.8848 47.4855 24.5875 47.6645 24.4593C48.1897 24.5366 51.085 25.5245 55.0044 26.9663C55.0514 26.9839 55.0895 27.0123 55.1208 27.0553L58.7322 31.8609C58.8143 31.9705 58.7938 32.0703 58.7625 32.1338C58.7155 32.2287 58.6187 32.2923 58.5219 32.2923C58.4749 32.2923 58.4279 32.2776 58.381 32.2502L55.0455 30.2392C54.9262 30.1678 54.7893 30.1296 54.6504 30.1296C54.4498 30.1296 54.2611 30.2069 54.1173 30.3458L53.2555 31.1811C53.2056 31.23 53.1362 31.2565 53.0139 31.2496L48.4568 30.2685C48.3208 30.2392 48.2289 30.1081 48.2494 29.9692L48.4431 28.638C48.4969 28.2663 48.2768 27.9132 47.9188 27.7987L43.2433 26.3012C43.2012 26.2875 43.1621 26.263 43.1318 26.2317L41.4787 24.52C41.4161 24.4544 41.3907 24.3664 41.4102 24.2774C41.4308 24.1884 41.4904 24.118 41.5755 24.0857Z" fill="black"/>
<path d="M21.728 29.0713C21.7407 29.0713 21.7544 29.0703 21.7672 29.0683L27.1469 28.2095C27.2487 28.1929 27.3289 28.1176 27.3514 28.0168C27.5059 27.3233 27.7641 26.1349 27.7573 26.0234C27.8189 25.8463 28.5965 24.6129 29.3135 23.5213C29.3585 23.4528 29.3673 23.3667 29.336 23.2904L28.6572 21.609L30.0735 19.8484C30.1254 19.7848 30.142 19.6987 30.1176 19.6204C30.0941 19.5422 30.0334 19.4796 29.9542 19.4551L28.039 18.8438C27.9549 18.8193 27.861 18.8379 27.7954 18.8966L21.5598 24.562C21.5344 24.5855 21.5138 24.6139 21.4991 24.6452L20.6433 26.5604C20.6159 26.622 20.6139 26.6914 20.6394 26.754L21.4952 28.9138C21.5344 29.0096 21.6273 29.0713 21.728 29.0713ZM21.9344 24.8946L28.0253 19.3612L29.4563 19.818L28.1769 21.4095C28.1202 21.4799 28.1065 21.5748 28.1398 21.6589L28.8245 23.355C27.2663 25.7338 27.2663 25.8845 27.2663 25.9608C27.2594 26.0762 27.0814 26.9272 26.9014 27.741L21.8865 28.5411L21.1431 26.665L21.9344 24.8946Z" fill="black"/>
<path d="M33.0706 16.1618L33.5508 17.9626C33.5704 18.0349 33.6203 18.0946 33.6888 18.1259L35.0337 18.7372C35.067 18.7519 35.1012 18.7588 35.1364 18.7588C35.1785 18.7588 35.2215 18.748 35.2597 18.7265C37.5162 17.4432 37.483 17.3444 37.4116 17.1272C37.3852 17.047 37.3451 16.9267 36.0549 16.0239C36.0197 15.9994 35.9786 15.9838 35.9365 15.9799L35.1873 15.9045L36.3464 14.54C36.4148 14.4598 36.4256 14.3444 36.3718 14.2534C36.318 14.1615 36.2124 14.1126 36.1097 14.1331C36.0999 14.1351 35.0904 14.3219 34.3862 14.3219C34.0066 14.3219 33.9 14.2681 33.9 14.2838C33.8453 14.141 33.766 13.9698 33.6858 13.7976C33.5841 13.5805 33.4139 13.2166 33.411 13.1403C33.4657 13.0044 33.9802 12.1142 34.2913 11.5851C34.3265 11.5264 34.3353 11.456 34.3167 11.3904C34.2981 11.3249 34.2541 11.2701 34.1945 11.2378L32.9718 10.5854C32.9102 10.5521 32.8378 10.5463 32.7732 10.5698C32.7077 10.5923 32.6549 10.6412 32.6265 10.7047L31.485 13.2724C31.4517 13.3457 31.4566 13.4308 31.4977 13.5003L33.0706 16.1618ZM32.9737 11.1537L33.7308 11.5577C33.4824 11.9822 33.0177 12.7862 32.9493 12.9564C32.8583 13.1834 32.9913 13.4895 33.2349 14.0109C33.3112 14.1732 33.3855 14.3327 33.4364 14.4677C33.5548 14.7816 34.0067 14.8217 34.3872 14.8217C34.753 14.8217 35.1814 14.7767 35.5306 14.7298L34.4987 15.9446C34.438 16.0151 34.4224 16.1129 34.4576 16.199C34.4928 16.285 34.572 16.3447 34.664 16.3545L35.8221 16.4699C36.2026 16.7379 36.6212 17.0451 36.8217 17.1957C36.5117 17.4138 35.7996 17.8442 35.1247 18.2306L34.0037 17.721L33.545 16.0004C33.5391 15.9789 33.5303 15.9574 33.5186 15.9378L31.9946 13.3584L32.9737 11.1537Z" fill="black"/>
<path d="M18.998 33.5131C19.0156 33.5131 19.0342 33.5111 19.0528 33.5072L24.3172 32.3324L28.6425 32.5731L30.8854 33.4945C30.9793 33.5326 31.0859 33.5111 31.1573 33.4397C31.2287 33.3683 31.2493 33.2607 31.2111 33.1678L30.8463 32.2865L33.9059 31.8825L33.7093 33.2274C33.6946 33.3292 33.7435 33.4299 33.8325 33.4808C33.9216 33.5316 34.0331 33.5219 34.1133 33.4583L37.0477 31.0941C37.1299 31.0276 37.1612 30.9161 37.1269 30.8163C37.0917 30.7165 36.9978 30.65 36.8912 30.65L35.1061 30.652L29.5718 31.3846L24.7192 31.0589L18.6469 31.7113C18.5755 31.7191 18.5099 31.7573 18.4689 31.816C18.4278 31.8756 18.4131 31.949 18.4307 32.0194L18.7564 33.3233C18.7838 33.4377 18.8855 33.5131 18.998 33.5131ZM24.727 31.5558L29.5855 31.8805L35.1364 31.1489H36.1811L34.2933 32.6699L34.4458 31.6291C34.4576 31.5519 34.4312 31.4736 34.3764 31.4179C34.3216 31.3621 34.2434 31.3328 34.1661 31.3455L30.457 31.8346C30.3797 31.8443 30.3122 31.8903 30.2731 31.9568C30.234 32.0233 30.2291 32.1055 30.2584 32.1769L30.5186 32.8049L28.7912 32.0947C28.7658 32.084 28.7374 32.0781 28.71 32.0762L24.3084 31.8316C24.2849 31.8316 24.2634 31.8326 24.2399 31.8375L19.179 32.9663L18.9814 32.1759L24.727 31.5558Z" fill="black"/>
<path d="M29.1003 26.4978C29.1003 26.7091 29.4759 28.235 29.6373 28.8816C29.6647 28.9921 29.7644 29.0703 29.8799 29.0703H30.5323C30.6653 29.0703 30.7749 28.9667 30.7817 28.8336L30.8952 26.6807L31.0419 26.6318L32.2607 28.4698C32.3203 28.5598 32.4309 28.6018 32.5375 28.5715L33.2505 28.368C33.3826 28.3299 33.4589 28.1929 33.4217 28.0609L32.739 25.6429L33.5538 24.3929C33.6144 24.2999 33.6066 24.1787 33.5342 24.0945C33.4618 24.0104 33.3425 23.983 33.2427 24.029L31.5085 24.7998L31.3109 24.7157L31.8547 23.8852L35.0748 23.6338C35.1765 23.626 35.2626 23.5566 35.2939 23.4597L35.824 21.7646C35.8563 21.6599 35.8172 21.5465 35.7272 21.4839C35.6362 21.4222 35.5169 21.4262 35.4308 21.4946L34.1133 22.5412H30.8991C30.8101 22.5412 30.7279 22.5882 30.6829 22.6645L29.6412 24.4711C29.4387 25.1372 29.1003 26.2885 29.1003 26.4978ZM31.0419 23.0381H34.1993C34.2561 23.0381 34.3108 23.0196 34.3549 22.9843L35.1051 22.3886L34.8674 23.1487L31.6933 23.3961C31.6161 23.402 31.5466 23.4431 31.5046 23.5086L30.7299 24.6902C30.6888 24.7518 30.678 24.8281 30.6995 24.8986C30.7201 24.969 30.7719 25.0267 30.8404 25.056L31.4107 25.3006C31.4752 25.328 31.5476 25.328 31.6102 25.2996L32.6734 24.8272L32.2577 25.4649C32.2186 25.5256 32.2069 25.5999 32.2264 25.6684L32.872 27.9562L32.5737 28.0413L31.35 26.1966C31.2884 26.1027 31.17 26.0616 31.0634 26.0978L30.5743 26.2611C30.4775 26.2934 30.41 26.3824 30.4041 26.4851L30.2946 28.5715H30.0735C29.8388 27.6237 29.606 26.6299 29.5982 26.5037C29.6079 26.3619 29.8701 25.4317 30.0941 24.6677L31.0419 23.0381Z" fill="black"/>
</svg>
