<svg width="90" height="90" viewBox="0 0 90 90" fill="none" xmlns="http://www.w3.org/2000/svg">
<path d="M44.9697 0.867737C20.4261 0.867737 0.458801 20.835 0.458801 45.3786C0.458801 69.9222 20.4261 89.8895 44.9697 89.8895C69.5133 89.8895 89.4805 69.9222 89.4805 45.3786C89.4805 20.835 69.5133 0.867737 44.9697 0.867737ZM44.9697 88.9112C20.9661 88.9112 1.43706 69.3832 1.43706 45.3786C1.43706 33.7843 6.00261 23.2425 13.4188 15.4321L13.5704 16.8193L13.367 18.6946C13.3542 18.8139 13.4276 18.9245 13.5421 18.9597C14.2836 19.1876 15.2022 19.4596 15.3675 19.4596C15.5015 19.4596 16.1335 19.259 17.2477 18.8619L18.7161 19.3256C18.7366 19.3324 18.7581 19.3363 18.7787 19.3373L20.4163 19.4185L22.2398 19.4586L23.7209 20.1385L26.0922 20.9788L29.0905 22.5988L29.1258 23.5898C29.1258 23.7659 29.07 23.9381 28.9663 24.0809L26.4835 28.3021C26.4081 28.4058 26.3583 28.5241 26.3367 28.6503L25.468 33.6444C25.4377 33.8205 25.4641 34.0024 25.5443 34.1619L29.4359 41.9459C29.4995 42.0731 29.5943 42.1817 29.7117 42.2628L35.3905 46.1446C35.6322 46.3099 35.7701 46.5897 35.7535 46.8812L35.4659 52.065C35.4649 52.0914 35.4639 52.1178 35.4649 52.1443L35.773 60.0819C35.777 60.1934 35.7593 60.3039 35.7202 60.4076L34.4954 63.675C34.4074 63.9098 34.4289 64.172 34.5551 64.3892L35.6635 66.2977C35.7398 66.4288 35.7789 66.5775 35.777 66.7282L35.7016 72.6917C35.7016 72.7269 35.7026 72.7621 35.7065 72.7963L36.0567 75.8798C36.0822 76.0999 36.1937 76.3014 36.3668 76.4394L40.5489 79.7713C40.8923 80.0443 41.3873 80.0071 41.6847 79.6843C41.9351 79.4133 41.9782 79.0102 41.7913 78.6923L40.6017 76.6702C40.5509 76.5832 40.5157 76.4883 40.499 76.3895L39.9639 73.3148C39.9189 73.0546 39.9991 72.7885 40.1801 72.5968L42.1738 70.4857C42.4174 70.2274 42.4722 69.8439 42.3088 69.528L41.9772 68.8843C41.6661 68.2807 42.166 67.5773 42.838 67.6732L43.067 67.7055C43.5717 67.7769 44.0217 67.3865 44.0217 66.8778V66.7272C44.0217 66.3946 44.2184 66.0943 44.5226 65.9612L47.609 64.6093C48.0238 64.4273 48.2185 63.9489 48.0492 63.5293L47.8947 63.1468C47.701 62.6664 47.9857 62.1264 48.4924 62.0159L51.2413 61.4172C51.4203 61.3781 51.5808 61.2822 51.7001 61.1423L55.5241 56.657C55.5936 56.5748 55.6474 56.4809 55.6816 56.3792L56.4691 54.0176C56.5396 53.8063 56.6922 53.6312 56.8927 53.5324L62.8885 50.5712C63.0538 50.489 63.1878 50.355 63.269 50.1897L65.6971 45.2387C65.7342 45.1634 65.7597 45.0822 65.7724 44.9981L66.1881 42.3127C66.2136 42.1494 66.286 41.9977 66.3975 41.8764L69.4076 38.5865C69.5485 38.432 69.6267 38.2305 69.6267 38.0221V35.0844C69.6267 34.7205 69.391 34.3976 69.0437 34.2871L68.0586 33.974C67.9451 33.9378 67.8414 33.8782 67.7524 33.7989L65.6354 31.8933C65.5552 31.8219 65.4623 31.7651 65.3615 31.7289L62.0667 30.5306C62.0452 30.5227 62.0247 30.5139 62.0041 30.5051L56.6902 28.0693C56.4691 27.9675 56.3028 27.7748 56.2353 27.541L54.6779 22.1557C54.5488 21.7096 54.0812 21.4533 53.6361 21.5863L51.6228 22.185C51.5534 22.2056 51.481 22.2173 51.4086 22.2193L49.139 22.2838C48.8925 22.2907 48.6558 22.1889 48.4914 22.005L45.0802 18.1839C44.9022 17.9844 44.639 17.8816 44.3729 17.909L40.1332 18.3326C40.0793 18.3385 40.0246 18.3385 39.9708 18.3326L35.2722 17.8856C35.1391 17.8728 35.0061 17.8924 34.8819 17.9413L30.4562 19.712C30.2772 19.7834 29.8477 19.9878 29.5043 20.2128L25.2333 18.6153L24.6571 16.696C24.6238 16.5845 24.5338 16.5072 24.3998 16.5189L21.9864 16.6911L23.4998 13.7006C23.5458 13.6096 23.5321 13.5 23.4655 13.4237C23.4 13.3464 23.2934 13.3171 23.1965 13.3513L20.0984 14.4108C20.0514 14.4264 20.0103 14.4568 19.981 14.4959L18.767 16.1012L17.2086 16.5502L16.8652 15.4203L18.2279 13.3582C18.2416 13.3376 18.2504 13.3171 18.2583 13.2946L18.5586 12.3183L21.6205 10.2317L24.8214 8.90317L27.3796 8.52752L27.767 9.82861C27.7904 9.9098 27.854 9.97241 27.9342 9.99589C28.4977 10.1651 28.8381 10.2512 28.9428 10.2512C29.0446 10.2512 29.1835 10.2512 29.8233 9.46665C29.8839 9.39328 29.8966 9.29154 29.8575 9.20545L29.4809 8.38176L31.8101 7.42111C31.8678 7.39763 31.9128 7.35361 31.9402 7.29785L32.6358 5.82948L35.1235 4.6448C35.1587 4.62817 35.189 4.60372 35.2135 4.57241L36.0186 3.53643L38.8458 2.74111L40.9295 2.04654C42.2619 1.92328 43.6089 1.85187 44.9726 1.85187C68.9762 1.85187 88.5052 21.3799 88.5052 45.3845C88.5052 69.389 68.9733 88.9112 44.9697 88.9112ZM28.9174 8.34948L29.3361 9.26611C29.1698 9.46274 28.9878 9.66132 28.8949 9.73959C28.7658 9.71219 28.4772 9.63295 28.2042 9.55372L27.7943 8.17535C27.7601 8.05698 27.6486 7.97774 27.5195 7.99926L24.6874 8.42285L21.3818 9.79241L18.2025 11.9524C18.1555 11.9847 18.1213 12.0317 18.1037 12.0855L17.7887 13.1107L16.382 15.2413C16.3409 15.303 16.3291 15.3802 16.3516 15.4517L16.8007 16.9298C16.8398 17.0599 16.9767 17.1333 17.1078 17.0971L18.9822 16.5571C19.035 16.5424 19.08 16.5111 19.1123 16.4681L20.3302 14.8578L22.7759 14.0214L21.3408 16.8574C21.2997 16.9376 21.3055 17.0335 21.3554 17.1078C21.4063 17.1832 21.4777 17.2243 21.5814 17.2184L24.2345 17.0286L24.7882 18.8756C24.8097 18.9509 24.8664 19.0106 24.9388 19.038L29.071 20.5826C29.0397 20.6306 29.0221 20.6765 29.0221 20.7196L29.069 22.0217L26.2937 20.5249L23.9087 19.6768L22.4012 18.9842C22.3709 18.9695 22.3366 18.9626 22.3024 18.9616L20.4339 18.9206L18.8354 18.8403L17.3172 18.361C17.2643 18.3444 17.2115 18.3453 17.1577 18.3639C16.3751 18.6437 15.4849 18.9431 15.3773 18.9607C15.2628 18.9489 14.5614 18.7484 13.8845 18.542L14.0674 16.8193L13.8698 14.9596C20.3263 8.35926 28.8548 3.79372 38.3967 2.34198L35.8014 3.07274C35.7496 3.08741 35.7046 3.11774 35.6723 3.1598L34.8525 4.21339L32.3384 5.41078C32.2855 5.43524 32.2445 5.4773 32.22 5.52915L31.5274 6.99165L29.0485 8.01491C28.9868 8.04035 28.937 8.09122 28.9115 8.15382C28.8861 8.21643 28.889 8.28785 28.9174 8.34948Z" fill="black"/>
<path d="M41.8813 12.3173L39.9727 12.4807L36.5635 12.1129L34.8192 12.1168L32.4372 11.6462L28.8098 11.1776C28.7755 11.1737 28.7393 11.1767 28.7051 11.1864L25.648 12.1236C25.5306 12.1598 25.4563 12.2772 25.4749 12.3995C25.4935 12.5218 25.5981 12.6118 25.7214 12.6118H30.8504L33.212 13.5323C33.2403 13.5431 33.2726 13.5489 33.3029 13.5489H40.8845C40.9373 13.5489 40.9872 13.5323 41.0302 13.502L42.0486 12.7683C42.1396 12.7028 42.1758 12.5844 42.1366 12.4797C42.0975 12.375 42.0046 12.3085 41.8813 12.3173ZM40.8033 13.05H33.3489L30.9874 12.1295C30.959 12.1187 30.9267 12.1129 30.8964 12.1129H27.3854L28.799 11.6795L32.356 12.1383L34.7693 12.6108L36.5361 12.6098L39.9668 12.9776L41.0263 12.8896L40.8033 13.05Z" fill="black"/>
</svg>
